<svg xmlns="http://www.w3.org/2000/svg" width="572" height="852" viewBox="0 0 572 852">
<rect width="572" height="852" fill="#f7f2e8" />
<text x="18" y="24" font-size="18" font-family="monospace" fill="#2b2926">failure kind</text>
<rect x="18" y="32" width="14" height="14" fill="#2f7d4a" stroke="#cabfae" rx="3" />
<text x="38" y="43" font-size="11" font-family="monospace" fill="#2b2926">ok</text>
<rect x="108" y="32" width="14" height="14" fill="#c96f2d" stroke="#cabfae" rx="3" />
<text x="128" y="43" font-size="11" font-family="monospace" fill="#2b2926">oom</text>
<rect x="198" y="32" width="14" height="14" fill="#9f4f1d" stroke="#cabfae" rx="3" />
<text x="218" y="43" font-size="11" font-family="monospace" fill="#2b2926">host_oom</text>
<rect x="288" y="32" width="14" height="14" fill="#8a3f56" stroke="#cabfae" rx="3" />
<text x="308" y="43" font-size="11" font-family="monospace" fill="#2b2926">worker_terminated</text>
<rect x="378" y="32" width="14" height="14" fill="#c9573b" stroke="#cabfae" rx="3" />
<text x="398" y="43" font-size="11" font-family="monospace" fill="#2b2926">error</text>
<rect x="468" y="32" width="14" height="14" fill="#d79b2e" stroke="#cabfae" rx="3" />
<text x="488" y="43" font-size="11" font-family="monospace" fill="#2b2926">timeout</text>
<rect x="558" y="32" width="14" height="14" fill="#d9d5cc" stroke="#cabfae" rx="3" />
<text x="578" y="43" font-size="11" font-family="monospace" fill="#2b2926">missing</text>
<rect x="10" y="52" width="552" height="172" rx="14" fill="#fffdfa" stroke="#cabfae" />
<text x="22" y="72" font-size="14" font-family="monospace" fill="#2b2926">dtype=float16</text>
<text x="134.0" y="90" text-anchor="middle" font-size="11" font-family="monospace" fill="#2b2926">d=8</text>
<text x="226.0" y="90" text-anchor="middle" font-size="11" font-family="monospace" fill="#2b2926">d=12</text>
<text x="318.0" y="90" text-anchor="middle" font-size="11" font-family="monospace" fill="#2b2926">d=16</text>
<text x="410.0" y="90" text-anchor="middle" font-size="11" font-family="monospace" fill="#2b2926">d=20</text>
<text x="502.0" y="90" text-anchor="middle" font-size="11" font-family="monospace" fill="#2b2926">d=24</text>
<text x="74" y="126" text-anchor="end" font-size="11" font-family="monospace" fill="#2b2926">l=4</text>
<rect x="88" y="104" width="88" height="30" fill="#2f7d4a" stroke="#cabfae" rx="6" />
<text x="132.0" y="124" text-anchor="middle" font-size="9" font-family="monospace" fill="#2b2926">ok</text>
<rect x="180" y="104" width="88" height="30" fill="#2f7d4a" stroke="#cabfae" rx="6" />
<text x="224.0" y="124" text-anchor="middle" font-size="9" font-family="monospace" fill="#2b2926">ok</text>
<rect x="272" y="104" width="88" height="30" fill="#2f7d4a" stroke="#cabfae" rx="6" />
<text x="316.0" y="124" text-anchor="middle" font-size="9" font-family="monospace" fill="#2b2926">ok</text>
<rect x="364" y="104" width="88" height="30" fill="#2f7d4a" stroke="#cabfae" rx="6" />
<text x="408.0" y="124" text-anchor="middle" font-size="9" font-family="monospace" fill="#2b2926">ok</text>
<rect x="456" y="104" width="88" height="30" fill="#2f7d4a" stroke="#cabfae" rx="6" />
<text x="500.0" y="124" text-anchor="middle" font-size="9" font-family="monospace" fill="#2b2926">ok</text>
<text x="74" y="160" text-anchor="end" font-size="11" font-family="monospace" fill="#2b2926">l=5</text>
<rect x="88" y="138" width="88" height="30" fill="#2f7d4a" stroke="#cabfae" rx="6" />
<text x="132.0" y="158" text-anchor="middle" font-size="9" font-family="monospace" fill="#2b2926">ok</text>
<rect x="180" y="138" width="88" height="30" fill="#2f7d4a" stroke="#cabfae" rx="6" />
<text x="224.0" y="158" text-anchor="middle" font-size="9" font-family="monospace" fill="#2b2926">ok</text>
<rect x="272" y="138" width="88" height="30" fill="#2f7d4a" stroke="#cabfae" rx="6" />
<text x="316.0" y="158" text-anchor="middle" font-size="9" font-family="monospace" fill="#2b2926">ok</text>
<rect x="364" y="138" width="88" height="30" fill="#2f7d4a" stroke="#cabfae" rx="6" />
<text x="408.0" y="158" text-anchor="middle" font-size="9" font-family="monospace" fill="#2b2926">ok</text>
<rect x="456" y="138" width="88" height="30" fill="#2f7d4a" stroke="#cabfae" rx="6" />
<text x="500.0" y="158" text-anchor="middle" font-size="9" font-family="monospace" fill="#2b2926">ok</text>
<text x="74" y="194" text-anchor="end" font-size="11" font-family="monospace" fill="#2b2926">l=6</text>
<rect x="88" y="172" width="88" height="30" fill="#2f7d4a" stroke="#cabfae" rx="6" />
<text x="132.0" y="192" text-anchor="middle" font-size="9" font-family="monospace" fill="#2b2926">ok</text>
<rect x="180" y="172" width="88" height="30" fill="#2f7d4a" stroke="#cabfae" rx="6" />
<text x="224.0" y="192" text-anchor="middle" font-size="9" font-family="monospace" fill="#2b2926">ok</text>
<rect x="272" y="172" width="88" height="30" fill="#2f7d4a" stroke="#cabfae" rx="6" />
<text x="316.0" y="192" text-anchor="middle" font-size="9" font-family="monospace" fill="#2b2926">ok</text>
<rect x="364" y="172" width="88" height="30" fill="#2f7d4a" stroke="#cabfae" rx="6" />
<text x="408.0" y="192" text-anchor="middle" font-size="9" font-family="monospace" fill="#2b2926">ok</text>
<rect x="456" y="172" width="88" height="30" fill="#2f7d4a" stroke="#cabfae" rx="6" />
<text x="500.0" y="192" text-anchor="middle" font-size="9" font-family="monospace" fill="#2b2926">ok</text>
<rect x="10" y="258" width="552" height="172" rx="14" fill="#fffdfa" stroke="#cabfae" />
<text x="22" y="278" font-size="14" font-family="monospace" fill="#2b2926">dtype=bfloat16</text>
<text x="134.0" y="296" text-anchor="middle" font-size="11" font-family="monospace" fill="#2b2926">d=8</text>
<text x="226.0" y="296" text-anchor="middle" font-size="11" font-family="monospace" fill="#2b2926">d=12</text>
<text x="318.0" y="296" text-anchor="middle" font-size="11" font-family="monospace" fill="#2b2926">d=16</text>
<text x="410.0" y="296" text-anchor="middle" font-size="11" font-family="monospace" fill="#2b2926">d=20</text>
<text x="502.0" y="296" text-anchor="middle" font-size="11" font-family="monospace" fill="#2b2926">d=24</text>
<text x="74" y="332" text-anchor="end" font-size="11" font-family="monospace" fill="#2b2926">l=4</text>
<rect x="88" y="310" width="88" height="30" fill="#2f7d4a" stroke="#cabfae" rx="6" />
<text x="132.0" y="330" text-anchor="middle" font-size="9" font-family="monospace" fill="#2b2926">ok</text>
<rect x="180" y="310" width="88" height="30" fill="#2f7d4a" stroke="#cabfae" rx="6" />
<text x="224.0" y="330" text-anchor="middle" font-size="9" font-family="monospace" fill="#2b2926">ok</text>
<rect x="272" y="310" width="88" height="30" fill="#2f7d4a" stroke="#cabfae" rx="6" />
<text x="316.0" y="330" text-anchor="middle" font-size="9" font-family="monospace" fill="#2b2926">ok</text>
<rect x="364" y="310" width="88" height="30" fill="#2f7d4a" stroke="#cabfae" rx="6" />
<text x="408.0" y="330" text-anchor="middle" font-size="9" font-family="monospace" fill="#2b2926">ok</text>
<rect x="456" y="310" width="88" height="30" fill="#2f7d4a" stroke="#cabfae" rx="6" />
<text x="500.0" y="330" text-anchor="middle" font-size="9" font-family="monospace" fill="#2b2926">ok</text>
<text x="74" y="366" text-anchor="end" font-size="11" font-family="monospace" fill="#2b2926">l=5</text>
<rect x="88" y="344" width="88" height="30" fill="#2f7d4a" stroke="#cabfae" rx="6" />
<text x="132.0" y="364" text-anchor="middle" font-size="9" font-family="monospace" fill="#2b2926">ok</text>
<rect x="180" y="344" width="88" height="30" fill="#2f7d4a" stroke="#cabfae" rx="6" />
<text x="224.0" y="364" text-anchor="middle" font-size="9" font-family="monospace" fill="#2b2926">ok</text>
<rect x="272" y="344" width="88" height="30" fill="#2f7d4a" stroke="#cabfae" rx="6" />
<text x="316.0" y="364" text-anchor="middle" font-size="9" font-family="monospace" fill="#2b2926">ok</text>
<rect x="364" y="344" width="88" height="30" fill="#2f7d4a" stroke="#cabfae" rx="6" />
<text x="408.0" y="364" text-anchor="middle" font-size="9" font-family="monospace" fill="#2b2926">ok</text>
<rect x="456" y="344" width="88" height="30" fill="#2f7d4a" stroke="#cabfae" rx="6" />
<text x="500.0" y="364" text-anchor="middle" font-size="9" font-family="monospace" fill="#2b2926">ok</text>
<text x="74" y="400" text-anchor="end" font-size="11" font-family="monospace" fill="#2b2926">l=6</text>
<rect x="88" y="378" width="88" height="30" fill="#2f7d4a" stroke="#cabfae" rx="6" />
<text x="132.0" y="398" text-anchor="middle" font-size="9" font-family="monospace" fill="#2b2926">ok</text>
<rect x="180" y="378" width="88" height="30" fill="#2f7d4a" stroke="#cabfae" rx="6" />
<text x="224.0" y="398" text-anchor="middle" font-size="9" font-family="monospace" fill="#2b2926">ok</text>
<rect x="272" y="378" width="88" height="30" fill="#2f7d4a" stroke="#cabfae" rx="6" />
<text x="316.0" y="398" text-anchor="middle" font-size="9" font-family="monospace" fill="#2b2926">ok</text>
<rect x="364" y="378" width="88" height="30" fill="#2f7d4a" stroke="#cabfae" rx="6" />
<text x="408.0" y="398" text-anchor="middle" font-size="9" font-family="monospace" fill="#2b2926">ok</text>
<rect x="456" y="378" width="88" height="30" fill="#2f7d4a" stroke="#cabfae" rx="6" />
<text x="500.0" y="398" text-anchor="middle" font-size="9" font-family="monospace" fill="#2b2926">ok</text>
<rect x="10" y="464" width="552" height="172" rx="14" fill="#fffdfa" stroke="#cabfae" />
<text x="22" y="484" font-size="14" font-family="monospace" fill="#2b2926">dtype=float32</text>
<text x="134.0" y="502" text-anchor="middle" font-size="11" font-family="monospace" fill="#2b2926">d=8</text>
<text x="226.0" y="502" text-anchor="middle" font-size="11" font-family="monospace" fill="#2b2926">d=12</text>
<text x="318.0" y="502" text-anchor="middle" font-size="11" font-family="monospace" fill="#2b2926">d=16</text>
<text x="410.0" y="502" text-anchor="middle" font-size="11" font-family="monospace" fill="#2b2926">d=20</text>
<text x="502.0" y="502" text-anchor="middle" font-size="11" font-family="monospace" fill="#2b2926">d=24</text>
<text x="74" y="538" text-anchor="end" font-size="11" font-family="monospace" fill="#2b2926">l=4</text>
<rect x="88" y="516" width="88" height="30" fill="#2f7d4a" stroke="#cabfae" rx="6" />
<text x="132.0" y="536" text-anchor="middle" font-size="9" font-family="monospace" fill="#2b2926">ok</text>
<rect x="180" y="516" width="88" height="30" fill="#2f7d4a" stroke="#cabfae" rx="6" />
<text x="224.0" y="536" text-anchor="middle" font-size="9" font-family="monospace" fill="#2b2926">ok</text>
<rect x="272" y="516" width="88" height="30" fill="#2f7d4a" stroke="#cabfae" rx="6" />
<text x="316.0" y="536" text-anchor="middle" font-size="9" font-family="monospace" fill="#2b2926">ok</text>
<rect x="364" y="516" width="88" height="30" fill="#2f7d4a" stroke="#cabfae" rx="6" />
<text x="408.0" y="536" text-anchor="middle" font-size="9" font-family="monospace" fill="#2b2926">ok</text>
<rect x="456" y="516" width="88" height="30" fill="#2f7d4a" stroke="#cabfae" rx="6" />
<text x="500.0" y="536" text-anchor="middle" font-size="9" font-family="monospace" fill="#2b2926">ok</text>
<text x="74" y="572" text-anchor="end" font-size="11" font-family="monospace" fill="#2b2926">l=5</text>
<rect x="88" y="550" width="88" height="30" fill="#2f7d4a" stroke="#cabfae" rx="6" />
<text x="132.0" y="570" text-anchor="middle" font-size="9" font-family="monospace" fill="#2b2926">ok</text>
<rect x="180" y="550" width="88" height="30" fill="#2f7d4a" stroke="#cabfae" rx="6" />
<text x="224.0" y="570" text-anchor="middle" font-size="9" font-family="monospace" fill="#2b2926">ok</text>
<rect x="272" y="550" width="88" height="30" fill="#2f7d4a" stroke="#cabfae" rx="6" />
<text x="316.0" y="570" text-anchor="middle" font-size="9" font-family="monospace" fill="#2b2926">ok</text>
<rect x="364" y="550" width="88" height="30" fill="#2f7d4a" stroke="#cabfae" rx="6" />
<text x="408.0" y="570" text-anchor="middle" font-size="9" font-family="monospace" fill="#2b2926">ok</text>
<rect x="456" y="550" width="88" height="30" fill="#2f7d4a" stroke="#cabfae" rx="6" />
<text x="500.0" y="570" text-anchor="middle" font-size="9" font-family="monospace" fill="#2b2926">ok</text>
<text x="74" y="606" text-anchor="end" font-size="11" font-family="monospace" fill="#2b2926">l=6</text>
<rect x="88" y="584" width="88" height="30" fill="#2f7d4a" stroke="#cabfae" rx="6" />
<text x="132.0" y="604" text-anchor="middle" font-size="9" font-family="monospace" fill="#2b2926">ok</text>
<rect x="180" y="584" width="88" height="30" fill="#2f7d4a" stroke="#cabfae" rx="6" />
<text x="224.0" y="604" text-anchor="middle" font-size="9" font-family="monospace" fill="#2b2926">ok</text>
<rect x="272" y="584" width="88" height="30" fill="#2f7d4a" stroke="#cabfae" rx="6" />
<text x="316.0" y="604" text-anchor="middle" font-size="9" font-family="monospace" fill="#2b2926">ok</text>
<rect x="364" y="584" width="88" height="30" fill="#2f7d4a" stroke="#cabfae" rx="6" />
<text x="408.0" y="604" text-anchor="middle" font-size="9" font-family="monospace" fill="#2b2926">ok</text>
<rect x="456" y="584" width="88" height="30" fill="#2f7d4a" stroke="#cabfae" rx="6" />
<text x="500.0" y="604" text-anchor="middle" font-size="9" font-family="monospace" fill="#2b2926">ok</text>
<rect x="10" y="670" width="552" height="172" rx="14" fill="#fffdfa" stroke="#cabfae" />
<text x="22" y="690" font-size="14" font-family="monospace" fill="#2b2926">dtype=float64</text>
<text x="134.0" y="708" text-anchor="middle" font-size="11" font-family="monospace" fill="#2b2926">d=8</text>
<text x="226.0" y="708" text-anchor="middle" font-size="11" font-family="monospace" fill="#2b2926">d=12</text>
<text x="318.0" y="708" text-anchor="middle" font-size="11" font-family="monospace" fill="#2b2926">d=16</text>
<text x="410.0" y="708" text-anchor="middle" font-size="11" font-family="monospace" fill="#2b2926">d=20</text>
<text x="502.0" y="708" text-anchor="middle" font-size="11" font-family="monospace" fill="#2b2926">d=24</text>
<text x="74" y="744" text-anchor="end" font-size="11" font-family="monospace" fill="#2b2926">l=4</text>
<rect x="88" y="722" width="88" height="30" fill="#2f7d4a" stroke="#cabfae" rx="6" />
<text x="132.0" y="742" text-anchor="middle" font-size="9" font-family="monospace" fill="#2b2926">ok</text>
<rect x="180" y="722" width="88" height="30" fill="#2f7d4a" stroke="#cabfae" rx="6" />
<text x="224.0" y="742" text-anchor="middle" font-size="9" font-family="monospace" fill="#2b2926">ok</text>
<rect x="272" y="722" width="88" height="30" fill="#2f7d4a" stroke="#cabfae" rx="6" />
<text x="316.0" y="742" text-anchor="middle" font-size="9" font-family="monospace" fill="#2b2926">ok</text>
<rect x="364" y="722" width="88" height="30" fill="#2f7d4a" stroke="#cabfae" rx="6" />
<text x="408.0" y="742" text-anchor="middle" font-size="9" font-family="monospace" fill="#2b2926">ok</text>
<rect x="456" y="722" width="88" height="30" fill="#2f7d4a" stroke="#cabfae" rx="6" />
<text x="500.0" y="742" text-anchor="middle" font-size="9" font-family="monospace" fill="#2b2926">ok</text>
<text x="74" y="778" text-anchor="end" font-size="11" font-family="monospace" fill="#2b2926">l=5</text>
<rect x="88" y="756" width="88" height="30" fill="#2f7d4a" stroke="#cabfae" rx="6" />
<text x="132.0" y="776" text-anchor="middle" font-size="9" font-family="monospace" fill="#2b2926">ok</text>
<rect x="180" y="756" width="88" height="30" fill="#2f7d4a" stroke="#cabfae" rx="6" />
<text x="224.0" y="776" text-anchor="middle" font-size="9" font-family="monospace" fill="#2b2926">ok</text>
<rect x="272" y="756" width="88" height="30" fill="#2f7d4a" stroke="#cabfae" rx="6" />
<text x="316.0" y="776" text-anchor="middle" font-size="9" font-family="monospace" fill="#2b2926">ok</text>
<rect x="364" y="756" width="88" height="30" fill="#2f7d4a" stroke="#cabfae" rx="6" />
<text x="408.0" y="776" text-anchor="middle" font-size="9" font-family="monospace" fill="#2b2926">ok</text>
<rect x="456" y="756" width="88" height="30" fill="#2f7d4a" stroke="#cabfae" rx="6" />
<text x="500.0" y="776" text-anchor="middle" font-size="9" font-family="monospace" fill="#2b2926">ok</text>
<text x="74" y="812" text-anchor="end" font-size="11" font-family="monospace" fill="#2b2926">l=6</text>
<rect x="88" y="790" width="88" height="30" fill="#2f7d4a" stroke="#cabfae" rx="6" />
<text x="132.0" y="810" text-anchor="middle" font-size="9" font-family="monospace" fill="#2b2926">ok</text>
<rect x="180" y="790" width="88" height="30" fill="#2f7d4a" stroke="#cabfae" rx="6" />
<text x="224.0" y="810" text-anchor="middle" font-size="9" font-family="monospace" fill="#2b2926">ok</text>
<rect x="272" y="790" width="88" height="30" fill="#2f7d4a" stroke="#cabfae" rx="6" />
<text x="316.0" y="810" text-anchor="middle" font-size="9" font-family="monospace" fill="#2b2926">ok</text>
<rect x="364" y="790" width="88" height="30" fill="#2f7d4a" stroke="#cabfae" rx="6" />
<text x="408.0" y="810" text-anchor="middle" font-size="9" font-family="monospace" fill="#2b2926">ok</text>
<rect x="456" y="790" width="88" height="30" fill="#2f7d4a" stroke="#cabfae" rx="6" />
<text x="500.0" y="810" text-anchor="middle" font-size="9" font-family="monospace" fill="#2b2926">ok</text>
</svg>