<svg xmlns="http://www.w3.org/2000/svg" width="760" height="360" viewBox="0 0 760 360">
<rect width="760" height="360" fill="#f7f2e8" />
<text x="18" y="22" font-size="18" font-family="monospace" fill="#2b2926">success frontier by dtype</text>
<rect x="72" y="28" width="664" height="284" fill="#fffdfa" stroke="#cabfae" />
<line x1="72.0" y1="28" x2="72.0" y2="312" stroke="#cabfae" stroke-dasharray="3 4" />
<text x="72.0" y="342" text-anchor="middle" font-size="11" font-family="monospace" fill="#2b2926">4</text>
<line x1="404.0" y1="28" x2="404.0" y2="312" stroke="#cabfae" stroke-dasharray="3 4" />
<text x="404.0" y="342" text-anchor="middle" font-size="11" font-family="monospace" fill="#2b2926">5</text>
<line x1="736.0" y1="28" x2="736.0" y2="312" stroke="#cabfae" stroke-dasharray="3 4" />
<text x="736.0" y="342" text-anchor="middle" font-size="11" font-family="monospace" fill="#2b2926">6</text>
<line x1="72" y1="225.6" x2="736" y2="225.6" stroke="#cabfae" stroke-dasharray="3 4" />
<text x="60" y="229.6" text-anchor="end" font-size="11" font-family="monospace" fill="#2b2926">8</text>
<line x1="72" y1="176.2" x2="736" y2="176.2" stroke="#cabfae" stroke-dasharray="3 4" />
<text x="60" y="180.2" text-anchor="end" font-size="11" font-family="monospace" fill="#2b2926">12</text>
<line x1="72" y1="126.8" x2="736" y2="126.8" stroke="#cabfae" stroke-dasharray="3 4" />
<text x="60" y="130.8" text-anchor="end" font-size="11" font-family="monospace" fill="#2b2926">16</text>
<line x1="72" y1="77.4" x2="736" y2="77.4" stroke="#cabfae" stroke-dasharray="3 4" />
<text x="60" y="81.4" text-anchor="end" font-size="11" font-family="monospace" fill="#2b2926">20</text>
<line x1="72" y1="28.0" x2="736" y2="28.0" stroke="#cabfae" stroke-dasharray="3 4" />
<text x="60" y="32.0" text-anchor="end" font-size="11" font-family="monospace" fill="#2b2926">24</text>
<text x="404.0" y="356" text-anchor="middle" font-size="12" font-family="monospace" fill="#2b2926">level</text>
<text x="20" y="170.0" transform="rotate(-90 20 170.0)" text-anchor="middle" font-size="12" font-family="monospace" fill="#2b2926">max success dimension</text>
<polyline fill="none" stroke="#1f5f7a" stroke-width="3" points="72.0,28.0 404.0,28.0 736.0,28.0" />
<circle cx="72.0" cy="28.0" r="4" fill="#1f5f7a" />
<circle cx="404.0" cy="28.0" r="4" fill="#1f5f7a" />
<circle cx="736.0" cy="28.0" r="4" fill="#1f5f7a" />
<line x1="600" y1="26" x2="620" y2="26" stroke="#1f5f7a" stroke-width="3" />
<text x="628" y="30" font-size="11" font-family="monospace" fill="#2b2926">float16</text>
<polyline fill="none" stroke="#c9573b" stroke-width="3" points="72.0,28.0 404.0,28.0 736.0,28.0" />
<circle cx="72.0" cy="28.0" r="4" fill="#c9573b" />
<circle cx="404.0" cy="28.0" r="4" fill="#c9573b" />
<circle cx="736.0" cy="28.0" r="4" fill="#c9573b" />
<line x1="600" y1="44" x2="620" y2="44" stroke="#c9573b" stroke-width="3" />
<text x="628" y="48" font-size="11" font-family="monospace" fill="#2b2926">bfloat16</text>
<polyline fill="none" stroke="#7d6b2f" stroke-width="3" points="72.0,28.0 404.0,28.0 736.0,28.0" />
<circle cx="72.0" cy="28.0" r="4" fill="#7d6b2f" />
<circle cx="404.0" cy="28.0" r="4" fill="#7d6b2f" />
<circle cx="736.0" cy="28.0" r="4" fill="#7d6b2f" />
<line x1="600" y1="62" x2="620" y2="62" stroke="#7d6b2f" stroke-width="3" />
<text x="628" y="66" font-size="11" font-family="monospace" fill="#2b2926">float32</text>
<polyline fill="none" stroke="#6d4ea1" stroke-width="3" points="72.0,28.0 404.0,28.0 736.0,28.0" />
<circle cx="72.0" cy="28.0" r="4" fill="#6d4ea1" />
<circle cx="404.0" cy="28.0" r="4" fill="#6d4ea1" />
<circle cx="736.0" cy="28.0" r="4" fill="#6d4ea1" />
<line x1="600" y1="80" x2="620" y2="80" stroke="#6d4ea1" stroke-width="3" />
<text x="628" y="84" font-size="11" font-family="monospace" fill="#2b2926">float64</text>
</svg>