<svg xmlns="http://www.w3.org/2000/svg" width="572" height="822" viewBox="0 0 572 822">
<rect width="572" height="822" fill="#f7f2e8" />
<text x="18" y="24" font-size="18" font-family="monospace" fill="#2b2926">integrator init time</text>
<text x="554" y="24" text-anchor="end" font-size="12" font-family="monospace" fill="#1f5f7a">log10=-1.54 -> log10=2.27</text>
<rect x="10" y="34" width="552" height="172" rx="14" fill="#fffdfa" stroke="#cabfae" />
<text x="22" y="54" font-size="14" font-family="monospace" fill="#2b2926">dtype=float16</text>
<text x="134.0" y="72" text-anchor="middle" font-size="11" font-family="monospace" fill="#2b2926">d=8</text>
<text x="226.0" y="72" text-anchor="middle" font-size="11" font-family="monospace" fill="#2b2926">d=12</text>
<text x="318.0" y="72" text-anchor="middle" font-size="11" font-family="monospace" fill="#2b2926">d=16</text>
<text x="410.0" y="72" text-anchor="middle" font-size="11" font-family="monospace" fill="#2b2926">d=20</text>
<text x="502.0" y="72" text-anchor="middle" font-size="11" font-family="monospace" fill="#2b2926">d=24</text>
<text x="74" y="108" text-anchor="end" font-size="11" font-family="monospace" fill="#2b2926">l=4</text>
<rect x="88" y="86" width="88" height="30" fill="#ebd8ca" stroke="#cabfae" rx="6" />
<text x="132.0" y="106" text-anchor="middle" font-size="9" font-family="monospace" fill="#2b2926">103.8 ms</text>
<rect x="180" y="86" width="88" height="30" fill="#e8d0c3" stroke="#cabfae" rx="6" />
<text x="224.0" y="106" text-anchor="middle" font-size="9" font-family="monospace" fill="#2b2926">167.1 ms</text>
<rect x="272" y="86" width="88" height="30" fill="#e1bfb4" stroke="#cabfae" rx="6" />
<text x="316.0" y="106" text-anchor="middle" font-size="9" font-family="monospace" fill="#2b2926">454.6 ms</text>
<rect x="364" y="86" width="88" height="30" fill="#dcb4aa" stroke="#cabfae" rx="6" />
<text x="408.0" y="106" text-anchor="middle" font-size="9" font-family="monospace" fill="#2b2926">889.6 ms</text>
<rect x="456" y="86" width="88" height="30" fill="#d7a99f" stroke="#cabfae" rx="6" />
<text x="500.0" y="106" text-anchor="middle" font-size="9" font-family="monospace" fill="#2b2926">1.73 s</text>
<text x="74" y="142" text-anchor="end" font-size="11" font-family="monospace" fill="#2b2926">l=5</text>
<rect x="88" y="120" width="88" height="30" fill="#e8d0c3" stroke="#cabfae" rx="6" />
<text x="132.0" y="140" text-anchor="middle" font-size="9" font-family="monospace" fill="#2b2926">165.7 ms</text>
<rect x="180" y="120" width="88" height="30" fill="#debbaf" stroke="#cabfae" rx="6" />
<text x="224.0" y="140" text-anchor="middle" font-size="9" font-family="monospace" fill="#2b2926">607.2 ms</text>
<rect x="272" y="120" width="88" height="30" fill="#d5a59b" stroke="#cabfae" rx="6" />
<text x="316.0" y="140" text-anchor="middle" font-size="9" font-family="monospace" fill="#2b2926">2.28 s</text>
<rect x="364" y="120" width="88" height="30" fill="#cc928a" stroke="#cabfae" rx="6" />
<text x="408.0" y="140" text-anchor="middle" font-size="9" font-family="monospace" fill="#2b2926">7.05 s</text>
<rect x="456" y="120" width="88" height="30" fill="#c6837c" stroke="#cabfae" rx="6" />
<text x="500.0" y="140" text-anchor="middle" font-size="9" font-family="monospace" fill="#2b2926">17.51 s</text>
<text x="74" y="176" text-anchor="end" font-size="11" font-family="monospace" fill="#2b2926">l=6</text>
<rect x="88" y="154" width="88" height="30" fill="#e2c2b6" stroke="#cabfae" rx="6" />
<text x="132.0" y="174" text-anchor="middle" font-size="9" font-family="monospace" fill="#2b2926">394.1 ms</text>
<rect x="180" y="154" width="88" height="30" fill="#d29f96" stroke="#cabfae" rx="6" />
<text x="224.0" y="174" text-anchor="middle" font-size="9" font-family="monospace" fill="#2b2926">3.23 s</text>
<rect x="272" y="154" width="88" height="30" fill="#c5837c" stroke="#cabfae" rx="6" />
<text x="316.0" y="174" text-anchor="middle" font-size="9" font-family="monospace" fill="#2b2926">17.68 s</text>
<rect x="364" y="154" width="88" height="30" fill="#bc6e68" stroke="#cabfae" rx="6" />
<text x="408.0" y="174" text-anchor="middle" font-size="9" font-family="monospace" fill="#2b2926">64.30 s</text>
<rect x="456" y="154" width="88" height="30" fill="#b45c58" stroke="#cabfae" rx="6" />
<text x="500.0" y="174" text-anchor="middle" font-size="9" font-family="monospace" fill="#2b2926">187.31 s</text>
<rect x="10" y="240" width="552" height="172" rx="14" fill="#fffdfa" stroke="#cabfae" />
<text x="22" y="260" font-size="14" font-family="monospace" fill="#2b2926">dtype=bfloat16</text>
<text x="134.0" y="278" text-anchor="middle" font-size="11" font-family="monospace" fill="#2b2926">d=8</text>
<text x="226.0" y="278" text-anchor="middle" font-size="11" font-family="monospace" fill="#2b2926">d=12</text>
<text x="318.0" y="278" text-anchor="middle" font-size="11" font-family="monospace" fill="#2b2926">d=16</text>
<text x="410.0" y="278" text-anchor="middle" font-size="11" font-family="monospace" fill="#2b2926">d=20</text>
<text x="502.0" y="278" text-anchor="middle" font-size="11" font-family="monospace" fill="#2b2926">d=24</text>
<text x="74" y="314" text-anchor="end" font-size="11" font-family="monospace" fill="#2b2926">l=4</text>
<rect x="88" y="292" width="88" height="30" fill="#eeded0" stroke="#cabfae" rx="6" />
<text x="132.0" y="312" text-anchor="middle" font-size="9" font-family="monospace" fill="#2b2926">69.4 ms</text>
<rect x="180" y="292" width="88" height="30" fill="#e9d1c4" stroke="#cabfae" rx="6" />
<text x="224.0" y="312" text-anchor="middle" font-size="9" font-family="monospace" fill="#2b2926">153.8 ms</text>
<rect x="272" y="292" width="88" height="30" fill="#e2c2b6" stroke="#cabfae" rx="6" />
<text x="316.0" y="312" text-anchor="middle" font-size="9" font-family="monospace" fill="#2b2926">386.2 ms</text>
<rect x="364" y="292" width="88" height="30" fill="#dcb5aa" stroke="#cabfae" rx="6" />
<text x="408.0" y="312" text-anchor="middle" font-size="9" font-family="monospace" fill="#2b2926">855.8 ms</text>
<rect x="456" y="292" width="88" height="30" fill="#d6a89e" stroke="#cabfae" rx="6" />
<text x="500.0" y="312" text-anchor="middle" font-size="9" font-family="monospace" fill="#2b2926">1.89 s</text>
<text x="74" y="348" text-anchor="end" font-size="11" font-family="monospace" fill="#2b2926">l=5</text>
<rect x="88" y="326" width="88" height="30" fill="#e8d1c4" stroke="#cabfae" rx="6" />
<text x="132.0" y="346" text-anchor="middle" font-size="9" font-family="monospace" fill="#2b2926">154.9 ms</text>
<rect x="180" y="326" width="88" height="30" fill="#debaaf" stroke="#cabfae" rx="6" />
<text x="224.0" y="346" text-anchor="middle" font-size="9" font-family="monospace" fill="#2b2926">621.7 ms</text>
<rect x="272" y="326" width="88" height="30" fill="#d4a49b" stroke="#cabfae" rx="6" />
<text x="316.0" y="346" text-anchor="middle" font-size="9" font-family="monospace" fill="#2b2926">2.32 s</text>
<rect x="364" y="326" width="88" height="30" fill="#cc928a" stroke="#cabfae" rx="6" />
<text x="408.0" y="346" text-anchor="middle" font-size="9" font-family="monospace" fill="#2b2926">7.21 s</text>
<rect x="456" y="326" width="88" height="30" fill="#c6837c" stroke="#cabfae" rx="6" />
<text x="500.0" y="346" text-anchor="middle" font-size="9" font-family="monospace" fill="#2b2926">17.11 s</text>
<text x="74" y="382" text-anchor="end" font-size="11" font-family="monospace" fill="#2b2926">l=6</text>
<rect x="88" y="360" width="88" height="30" fill="#e2c2b6" stroke="#cabfae" rx="6" />
<text x="132.0" y="380" text-anchor="middle" font-size="9" font-family="monospace" fill="#2b2926">388.8 ms</text>
<rect x="180" y="360" width="88" height="30" fill="#d29e95" stroke="#cabfae" rx="6" />
<text x="224.0" y="380" text-anchor="middle" font-size="9" font-family="monospace" fill="#2b2926">3.46 s</text>
<rect x="272" y="360" width="88" height="30" fill="#c5827b" stroke="#cabfae" rx="6" />
<text x="316.0" y="380" text-anchor="middle" font-size="9" font-family="monospace" fill="#2b2926">18.26 s</text>
<rect x="364" y="360" width="88" height="30" fill="#bc6e69" stroke="#cabfae" rx="6" />
<text x="408.0" y="380" text-anchor="middle" font-size="9" font-family="monospace" fill="#2b2926">62.17 s</text>
<rect x="456" y="360" width="88" height="30" fill="#b45c58" stroke="#cabfae" rx="6" />
<text x="500.0" y="380" text-anchor="middle" font-size="9" font-family="monospace" fill="#2b2926">183.53 s</text>
<rect x="10" y="446" width="552" height="172" rx="14" fill="#fffdfa" stroke="#cabfae" />
<text x="22" y="466" font-size="14" font-family="monospace" fill="#2b2926">dtype=float32</text>
<text x="134.0" y="484" text-anchor="middle" font-size="11" font-family="monospace" fill="#2b2926">d=8</text>
<text x="226.0" y="484" text-anchor="middle" font-size="11" font-family="monospace" fill="#2b2926">d=12</text>
<text x="318.0" y="484" text-anchor="middle" font-size="11" font-family="monospace" fill="#2b2926">d=16</text>
<text x="410.0" y="484" text-anchor="middle" font-size="11" font-family="monospace" fill="#2b2926">d=20</text>
<text x="502.0" y="484" text-anchor="middle" font-size="11" font-family="monospace" fill="#2b2926">d=24</text>
<text x="74" y="520" text-anchor="end" font-size="11" font-family="monospace" fill="#2b2926">l=4</text>
<rect x="88" y="498" width="88" height="30" fill="#f0e3d5" stroke="#cabfae" rx="6" />
<text x="132.0" y="518" text-anchor="middle" font-size="9" font-family="monospace" fill="#2b2926">52.8 ms</text>
<rect x="180" y="498" width="88" height="30" fill="#ead4c7" stroke="#cabfae" rx="6" />
<text x="224.0" y="518" text-anchor="middle" font-size="9" font-family="monospace" fill="#2b2926">132.6 ms</text>
<rect x="272" y="498" width="88" height="30" fill="#e1c1b5" stroke="#cabfae" rx="6" />
<text x="316.0" y="518" text-anchor="middle" font-size="9" font-family="monospace" fill="#2b2926">411.9 ms</text>
<rect x="364" y="498" width="88" height="30" fill="#dcb5ab" stroke="#cabfae" rx="6" />
<text x="408.0" y="518" text-anchor="middle" font-size="9" font-family="monospace" fill="#2b2926">835.2 ms</text>
<rect x="456" y="498" width="88" height="30" fill="#d7aaa0" stroke="#cabfae" rx="6" />
<text x="500.0" y="518" text-anchor="middle" font-size="9" font-family="monospace" fill="#2b2926">1.68 s</text>
<text x="74" y="554" text-anchor="end" font-size="11" font-family="monospace" fill="#2b2926">l=5</text>
<rect x="88" y="532" width="88" height="30" fill="#ead4c7" stroke="#cabfae" rx="6" />
<text x="132.0" y="552" text-anchor="middle" font-size="9" font-family="monospace" fill="#2b2926">126.6 ms</text>
<rect x="180" y="532" width="88" height="30" fill="#debaaf" stroke="#cabfae" rx="6" />
<text x="224.0" y="552" text-anchor="middle" font-size="9" font-family="monospace" fill="#2b2926">635.6 ms</text>
<rect x="272" y="532" width="88" height="30" fill="#d5a59c" stroke="#cabfae" rx="6" />
<text x="316.0" y="552" text-anchor="middle" font-size="9" font-family="monospace" fill="#2b2926">2.19 s</text>
<rect x="364" y="532" width="88" height="30" fill="#cd938b" stroke="#cabfae" rx="6" />
<text x="408.0" y="552" text-anchor="middle" font-size="9" font-family="monospace" fill="#2b2926">6.74 s</text>
<rect x="456" y="532" width="88" height="30" fill="#c6847d" stroke="#cabfae" rx="6" />
<text x="500.0" y="552" text-anchor="middle" font-size="9" font-family="monospace" fill="#2b2926">16.93 s</text>
<text x="74" y="588" text-anchor="end" font-size="11" font-family="monospace" fill="#2b2926">l=6</text>
<rect x="88" y="566" width="88" height="30" fill="#e2c3b7" stroke="#cabfae" rx="6" />
<text x="132.0" y="586" text-anchor="middle" font-size="9" font-family="monospace" fill="#2b2926">374.4 ms</text>
<rect x="180" y="566" width="88" height="30" fill="#d29f96" stroke="#cabfae" rx="6" />
<text x="224.0" y="586" text-anchor="middle" font-size="9" font-family="monospace" fill="#2b2926">3.28 s</text>
<rect x="272" y="566" width="88" height="30" fill="#c6837c" stroke="#cabfae" rx="6" />
<text x="316.0" y="586" text-anchor="middle" font-size="9" font-family="monospace" fill="#2b2926">17.45 s</text>
<rect x="364" y="566" width="88" height="30" fill="#bc6e69" stroke="#cabfae" rx="6" />
<text x="408.0" y="586" text-anchor="middle" font-size="9" font-family="monospace" fill="#2b2926">62.67 s</text>
<rect x="456" y="566" width="88" height="30" fill="#b45d58" stroke="#cabfae" rx="6" />
<text x="500.0" y="586" text-anchor="middle" font-size="9" font-family="monospace" fill="#2b2926">181.33 s</text>
<rect x="10" y="652" width="552" height="172" rx="14" fill="#fffdfa" stroke="#cabfae" />
<text x="22" y="672" font-size="14" font-family="monospace" fill="#2b2926">dtype=float64</text>
<text x="134.0" y="690" text-anchor="middle" font-size="11" font-family="monospace" fill="#2b2926">d=8</text>
<text x="226.0" y="690" text-anchor="middle" font-size="11" font-family="monospace" fill="#2b2926">d=12</text>
<text x="318.0" y="690" text-anchor="middle" font-size="11" font-family="monospace" fill="#2b2926">d=16</text>
<text x="410.0" y="690" text-anchor="middle" font-size="11" font-family="monospace" fill="#2b2926">d=20</text>
<text x="502.0" y="690" text-anchor="middle" font-size="11" font-family="monospace" fill="#2b2926">d=24</text>
<text x="74" y="726" text-anchor="end" font-size="11" font-family="monospace" fill="#2b2926">l=4</text>
<rect x="88" y="704" width="88" height="30" fill="#f5edde" stroke="#cabfae" rx="6" />
<text x="132.0" y="724" text-anchor="middle" font-size="9" font-family="monospace" fill="#2b2926">28.5 ms</text>
<rect x="180" y="704" width="88" height="30" fill="#ecd8ca" stroke="#cabfae" rx="6" />
<text x="224.0" y="724" text-anchor="middle" font-size="9" font-family="monospace" fill="#2b2926">102.9 ms</text>
<rect x="272" y="704" width="88" height="30" fill="#e3c5b9" stroke="#cabfae" rx="6" />
<text x="316.0" y="724" text-anchor="middle" font-size="9" font-family="monospace" fill="#2b2926">324.2 ms</text>
<rect x="364" y="704" width="88" height="30" fill="#dcb6ab" stroke="#cabfae" rx="6" />
<text x="408.0" y="724" text-anchor="middle" font-size="9" font-family="monospace" fill="#2b2926">824.4 ms</text>
<rect x="456" y="704" width="88" height="30" fill="#d7aaa0" stroke="#cabfae" rx="6" />
<text x="500.0" y="724" text-anchor="middle" font-size="9" font-family="monospace" fill="#2b2926">1.67 s</text>
<text x="74" y="760" text-anchor="end" font-size="11" font-family="monospace" fill="#2b2926">l=5</text>
<rect x="88" y="738" width="88" height="30" fill="#ebd7ca" stroke="#cabfae" rx="6" />
<text x="132.0" y="758" text-anchor="middle" font-size="9" font-family="monospace" fill="#2b2926">109.0 ms</text>
<rect x="180" y="738" width="88" height="30" fill="#debaaf" stroke="#cabfae" rx="6" />
<text x="224.0" y="758" text-anchor="middle" font-size="9" font-family="monospace" fill="#2b2926">613.1 ms</text>
<rect x="272" y="738" width="88" height="30" fill="#d5a59b" stroke="#cabfae" rx="6" />
<text x="316.0" y="758" text-anchor="middle" font-size="9" font-family="monospace" fill="#2b2926">2.25 s</text>
<rect x="364" y="738" width="88" height="30" fill="#cd938b" stroke="#cabfae" rx="6" />
<text x="408.0" y="758" text-anchor="middle" font-size="9" font-family="monospace" fill="#2b2926">6.49 s</text>
<rect x="456" y="738" width="88" height="30" fill="#c6837c" stroke="#cabfae" rx="6" />
<text x="500.0" y="758" text-anchor="middle" font-size="9" font-family="monospace" fill="#2b2926">17.45 s</text>
<text x="74" y="794" text-anchor="end" font-size="11" font-family="monospace" fill="#2b2926">l=6</text>
<rect x="88" y="772" width="88" height="30" fill="#e2c3b7" stroke="#cabfae" rx="6" />
<text x="132.0" y="792" text-anchor="middle" font-size="9" font-family="monospace" fill="#2b2926">372.1 ms</text>
<rect x="180" y="772" width="88" height="30" fill="#d29f96" stroke="#cabfae" rx="6" />
<text x="224.0" y="792" text-anchor="middle" font-size="9" font-family="monospace" fill="#2b2926">3.15 s</text>
<rect x="272" y="772" width="88" height="30" fill="#c6847d" stroke="#cabfae" rx="6" />
<text x="316.0" y="792" text-anchor="middle" font-size="9" font-family="monospace" fill="#2b2926">16.93 s</text>
<rect x="364" y="772" width="88" height="30" fill="#bc6e69" stroke="#cabfae" rx="6" />
<text x="408.0" y="792" text-anchor="middle" font-size="9" font-family="monospace" fill="#2b2926">61.42 s</text>
<rect x="456" y="772" width="88" height="30" fill="#b45c58" stroke="#cabfae" rx="6" />
<text x="500.0" y="792" text-anchor="middle" font-size="9" font-family="monospace" fill="#2b2926">183.91 s</text>
</svg>