<svg xmlns="http://www.w3.org/2000/svg" viewBox="0 0 980 560" width="980" height="560">
<rect x="0" y="0" width="980" height="560" fill="#fffdf8" />
<text x="490.0" y="28" text-anchor="middle" font-size="20" font-family="monospace" fill="#2d2418">Float32 Wall-Time Growth Toward Timeout</text>
<text x="490.0" y="48" text-anchor="middle" font-size="12" font-family="monospace" fill="#7f6b53">success wall time from log; first post-frontier failure is marked per dimension</text>
<rect x="90" y="60" width="840" height="420" fill="#f7f0e3" stroke="#d8c8b0" />
<line x1="90" y1="480.0" x2="930" y2="480.0" stroke="#d8c8b0" stroke-width="1" />
<text x="80" y="484.0" text-anchor="end" font-size="11" font-family="monospace" fill="#7f6b53">1</text>
<line x1="90" y1="423.7" x2="930" y2="423.7" stroke="#d8c8b0" stroke-width="1" />
<text x="80" y="427.7" text-anchor="end" font-size="11" font-family="monospace" fill="#7f6b53">3</text>
<line x1="90" y1="361.9" x2="930" y2="361.9" stroke="#d8c8b0" stroke-width="1" />
<text x="80" y="365.9" text-anchor="end" font-size="11" font-family="monospace" fill="#7f6b53">10</text>
<line x1="90" y1="305.6" x2="930" y2="305.6" stroke="#d8c8b0" stroke-width="1" />
<text x="80" y="309.6" text-anchor="end" font-size="11" font-family="monospace" fill="#7f6b53">30</text>
<line x1="90" y1="243.8" x2="930" y2="243.8" stroke="#d8c8b0" stroke-width="1" />
<text x="80" y="247.8" text-anchor="end" font-size="11" font-family="monospace" fill="#7f6b53">100</text>
<line x1="90" y1="187.5" x2="930" y2="187.5" stroke="#d8c8b0" stroke-width="1" />
<text x="80" y="191.5" text-anchor="end" font-size="11" font-family="monospace" fill="#7f6b53">300</text>
<line x1="90" y1="131.1" x2="930" y2="131.1" stroke="#d8c8b0" stroke-width="1" />
<text x="80" y="135.1" text-anchor="end" font-size="11" font-family="monospace" fill="#7f6b53">900</text>
<line x1="90" y1="95.6" x2="930" y2="95.6" stroke="#d8c8b0" stroke-width="1" />
<text x="80" y="99.6" text-anchor="end" font-size="11" font-family="monospace" fill="#7f6b53">1800</text>
<line x1="90" y1="60.0" x2="930" y2="60.0" stroke="#b4552d" stroke-width="1" stroke-dasharray="6 4" />
<text x="80" y="64.0" text-anchor="end" font-size="11" font-family="monospace" fill="#7f6b53">timeout=3600s</text>
<line x1="90.0" y1="60" x2="90.0" y2="480" stroke="#d8c8b0" stroke-width="0.7" opacity="0.5" />
<text x="90.0" y="518" text-anchor="middle" font-size="11" font-family="monospace" fill="#7f6b53">1</text>
<line x1="120.0" y1="60" x2="120.0" y2="480" stroke="#d8c8b0" stroke-width="0.7" opacity="0.5" />
<text x="120.0" y="518" text-anchor="middle" font-size="11" font-family="monospace" fill="#7f6b53">2</text>
<line x1="150.0" y1="60" x2="150.0" y2="480" stroke="#d8c8b0" stroke-width="0.7" opacity="0.5" />
<text x="150.0" y="518" text-anchor="middle" font-size="11" font-family="monospace" fill="#7f6b53">3</text>
<line x1="180.0" y1="60" x2="180.0" y2="480" stroke="#d8c8b0" stroke-width="0.7" opacity="0.5" />
<text x="180.0" y="518" text-anchor="middle" font-size="11" font-family="monospace" fill="#7f6b53">4</text>
<line x1="210.0" y1="60" x2="210.0" y2="480" stroke="#d8c8b0" stroke-width="0.7" opacity="0.5" />
<text x="210.0" y="518" text-anchor="middle" font-size="11" font-family="monospace" fill="#7f6b53">5</text>
<line x1="240.0" y1="60" x2="240.0" y2="480" stroke="#d8c8b0" stroke-width="0.7" opacity="0.5" />
<text x="240.0" y="518" text-anchor="middle" font-size="11" font-family="monospace" fill="#7f6b53">6</text>
<line x1="270.0" y1="60" x2="270.0" y2="480" stroke="#d8c8b0" stroke-width="0.7" opacity="0.5" />
<text x="270.0" y="518" text-anchor="middle" font-size="11" font-family="monospace" fill="#7f6b53">7</text>
<line x1="300.0" y1="60" x2="300.0" y2="480" stroke="#d8c8b0" stroke-width="0.7" opacity="0.5" />
<text x="300.0" y="518" text-anchor="middle" font-size="11" font-family="monospace" fill="#7f6b53">8</text>
<line x1="330.0" y1="60" x2="330.0" y2="480" stroke="#d8c8b0" stroke-width="0.7" opacity="0.5" />
<text x="330.0" y="518" text-anchor="middle" font-size="11" font-family="monospace" fill="#7f6b53">9</text>
<line x1="360.0" y1="60" x2="360.0" y2="480" stroke="#d8c8b0" stroke-width="0.7" opacity="0.5" />
<text x="360.0" y="518" text-anchor="middle" font-size="11" font-family="monospace" fill="#7f6b53">10</text>
<line x1="390.0" y1="60" x2="390.0" y2="480" stroke="#d8c8b0" stroke-width="0.7" opacity="0.5" />
<line x1="420.0" y1="60" x2="420.0" y2="480" stroke="#d8c8b0" stroke-width="0.7" opacity="0.5" />
<text x="420.0" y="518" text-anchor="middle" font-size="11" font-family="monospace" fill="#7f6b53">12</text>
<line x1="450.0" y1="60" x2="450.0" y2="480" stroke="#d8c8b0" stroke-width="0.7" opacity="0.5" />
<line x1="480.0" y1="60" x2="480.0" y2="480" stroke="#d8c8b0" stroke-width="0.7" opacity="0.5" />
<text x="480.0" y="518" text-anchor="middle" font-size="11" font-family="monospace" fill="#7f6b53">14</text>
<line x1="510.0" y1="60" x2="510.0" y2="480" stroke="#d8c8b0" stroke-width="0.7" opacity="0.5" />
<line x1="540.0" y1="60" x2="540.0" y2="480" stroke="#d8c8b0" stroke-width="0.7" opacity="0.5" />
<text x="540.0" y="518" text-anchor="middle" font-size="11" font-family="monospace" fill="#7f6b53">16</text>
<line x1="570.0" y1="60" x2="570.0" y2="480" stroke="#d8c8b0" stroke-width="0.7" opacity="0.5" />
<line x1="600.0" y1="60" x2="600.0" y2="480" stroke="#d8c8b0" stroke-width="0.7" opacity="0.5" />
<text x="600.0" y="518" text-anchor="middle" font-size="11" font-family="monospace" fill="#7f6b53">18</text>
<line x1="630.0" y1="60" x2="630.0" y2="480" stroke="#d8c8b0" stroke-width="0.7" opacity="0.5" />
<line x1="660.0" y1="60" x2="660.0" y2="480" stroke="#d8c8b0" stroke-width="0.7" opacity="0.5" />
<text x="660.0" y="518" text-anchor="middle" font-size="11" font-family="monospace" fill="#7f6b53">20</text>
<line x1="690.0" y1="60" x2="690.0" y2="480" stroke="#d8c8b0" stroke-width="0.7" opacity="0.5" />
<line x1="720.0" y1="60" x2="720.0" y2="480" stroke="#d8c8b0" stroke-width="0.7" opacity="0.5" />
<text x="720.0" y="518" text-anchor="middle" font-size="11" font-family="monospace" fill="#7f6b53">22</text>
<line x1="750.0" y1="60" x2="750.0" y2="480" stroke="#d8c8b0" stroke-width="0.7" opacity="0.5" />
<line x1="780.0" y1="60" x2="780.0" y2="480" stroke="#d8c8b0" stroke-width="0.7" opacity="0.5" />
<text x="780.0" y="518" text-anchor="middle" font-size="11" font-family="monospace" fill="#7f6b53">24</text>
<line x1="810.0" y1="60" x2="810.0" y2="480" stroke="#d8c8b0" stroke-width="0.7" opacity="0.5" />
<line x1="840.0" y1="60" x2="840.0" y2="480" stroke="#d8c8b0" stroke-width="0.7" opacity="0.5" />
<text x="840.0" y="518" text-anchor="middle" font-size="11" font-family="monospace" fill="#7f6b53">26</text>
<line x1="870.0" y1="60" x2="870.0" y2="480" stroke="#d8c8b0" stroke-width="0.7" opacity="0.5" />
<line x1="900.0" y1="60" x2="900.0" y2="480" stroke="#d8c8b0" stroke-width="0.7" opacity="0.5" />
<text x="900.0" y="518" text-anchor="middle" font-size="11" font-family="monospace" fill="#7f6b53">28</text>
<line x1="930.0" y1="60" x2="930.0" y2="480" stroke="#d8c8b0" stroke-width="0.7" opacity="0.5" />
<polyline fill="none" stroke="#35618f" stroke-width="2.5" points="90.0,439.9 120.0,439.9 150.0,433.8 180.0,429.4 210.0,428.3 240.0,421.6 270.0,426.8 300.0,423.3 330.0,420.7 360.0,429.7 390.0,420.1 420.0,413.3 450.0,419.1 480.0,414.6 510.0,374.4 540.0,368.2 570.0,419.2 600.0,413.8 630.0,394.6 660.0,388.3 690.0,327.6 720.0,340.8 750.0,315.6 780.0,285.2 810.0,254.9 840.0,212.8 900.0,145.8" />
<circle cx="90.0" cy="439.9" r="3.5" fill="#35618f" />
<circle cx="120.0" cy="439.9" r="3.5" fill="#35618f" />
<circle cx="150.0" cy="433.8" r="3.5" fill="#35618f" />
<circle cx="180.0" cy="429.4" r="3.5" fill="#35618f" />
<circle cx="210.0" cy="428.3" r="3.5" fill="#35618f" />
<circle cx="240.0" cy="421.6" r="3.5" fill="#35618f" />
<circle cx="270.0" cy="426.8" r="3.5" fill="#35618f" />
<circle cx="300.0" cy="423.3" r="3.5" fill="#35618f" />
<circle cx="330.0" cy="420.7" r="3.5" fill="#35618f" />
<circle cx="360.0" cy="429.7" r="3.5" fill="#35618f" />
<circle cx="390.0" cy="420.1" r="3.5" fill="#35618f" />
<circle cx="420.0" cy="413.3" r="3.5" fill="#35618f" />
<circle cx="450.0" cy="419.1" r="3.5" fill="#35618f" />
<circle cx="480.0" cy="414.6" r="3.5" fill="#35618f" />
<circle cx="510.0" cy="374.4" r="3.5" fill="#35618f" />
<circle cx="540.0" cy="368.2" r="3.5" fill="#35618f" />
<circle cx="570.0" cy="419.2" r="3.5" fill="#35618f" />
<circle cx="600.0" cy="413.8" r="3.5" fill="#35618f" />
<circle cx="630.0" cy="394.6" r="3.5" fill="#35618f" />
<circle cx="660.0" cy="388.3" r="3.5" fill="#35618f" />
<circle cx="690.0" cy="327.6" r="3.5" fill="#35618f" />
<circle cx="720.0" cy="340.8" r="3.5" fill="#35618f" />
<circle cx="750.0" cy="315.6" r="3.5" fill="#35618f" />
<circle cx="780.0" cy="285.2" r="3.5" fill="#35618f" />
<circle cx="810.0" cy="254.9" r="3.5" fill="#35618f" />
<circle cx="840.0" cy="212.8" r="3.5" fill="#35618f" />
<circle cx="900.0" cy="145.8" r="3.5" fill="#35618f" />
<polyline fill="none" stroke="#aa3d2f" stroke-width="2.5" points="90.0,431.7 120.0,423.5 150.0,414.1 180.0,386.7 210.0,391.0 240.0,364.9 270.0,330.5 300.0,287.2 330.0,244.8 360.0,208.5 390.0,170.9 420.0,129.6 450.0,93.5" />
<circle cx="90.0" cy="431.7" r="3.5" fill="#aa3d2f" />
<circle cx="120.0" cy="423.5" r="3.5" fill="#aa3d2f" />
<circle cx="150.0" cy="414.1" r="3.5" fill="#aa3d2f" />
<circle cx="180.0" cy="386.7" r="3.5" fill="#aa3d2f" />
<circle cx="210.0" cy="391.0" r="3.5" fill="#aa3d2f" />
<circle cx="240.0" cy="364.9" r="3.5" fill="#aa3d2f" />
<circle cx="270.0" cy="330.5" r="3.5" fill="#aa3d2f" />
<circle cx="300.0" cy="287.2" r="3.5" fill="#aa3d2f" />
<circle cx="330.0" cy="244.8" r="3.5" fill="#aa3d2f" />
<circle cx="360.0" cy="208.5" r="3.5" fill="#aa3d2f" />
<circle cx="390.0" cy="170.9" r="3.5" fill="#aa3d2f" />
<circle cx="420.0" cy="129.6" r="3.5" fill="#aa3d2f" />
<circle cx="450.0" cy="93.5" r="3.5" fill="#aa3d2f" />
<polyline fill="none" stroke="#3f7f4f" stroke-width="2.5" points="90.0,427.0 120.0,408.0 150.0,400.9 180.0,357.9 210.0,290.1 240.0,256.1 270.0,207.4 300.0,158.2 330.0,115.7 360.0,76.2" />
<circle cx="90.0" cy="427.0" r="3.5" fill="#3f7f4f" />
<circle cx="120.0" cy="408.0" r="3.5" fill="#3f7f4f" />
<circle cx="150.0" cy="400.9" r="3.5" fill="#3f7f4f" />
<circle cx="180.0" cy="357.9" r="3.5" fill="#3f7f4f" />
<circle cx="210.0" cy="290.1" r="3.5" fill="#3f7f4f" />
<circle cx="240.0" cy="256.1" r="3.5" fill="#3f7f4f" />
<circle cx="270.0" cy="207.4" r="3.5" fill="#3f7f4f" />
<circle cx="300.0" cy="158.2" r="3.5" fill="#3f7f4f" />
<circle cx="330.0" cy="115.7" r="3.5" fill="#3f7f4f" />
<circle cx="360.0" cy="76.2" r="3.5" fill="#3f7f4f" />
<polyline fill="none" stroke="#8357a2" stroke-width="2.5" points="90.0,430.7 120.0,401.0 150.0,364.3 180.0,296.8 210.0,241.8 240.0,183.4 270.0,119.8 300.0,71.3" />
<circle cx="90.0" cy="430.7" r="3.5" fill="#8357a2" />
<circle cx="120.0" cy="401.0" r="3.5" fill="#8357a2" />
<circle cx="150.0" cy="364.3" r="3.5" fill="#8357a2" />
<circle cx="180.0" cy="296.8" r="3.5" fill="#8357a2" />
<circle cx="210.0" cy="241.8" r="3.5" fill="#8357a2" />
<circle cx="240.0" cy="183.4" r="3.5" fill="#8357a2" />
<circle cx="270.0" cy="119.8" r="3.5" fill="#8357a2" />
<circle cx="300.0" cy="71.3" r="3.5" fill="#8357a2" />
<line x1="925.0" y1="164.8" x2="935.0" y2="174.8" stroke="#35618f" stroke-width="2.5" />
<line x1="925.0" y1="174.8" x2="935.0" y2="164.8" stroke="#35618f" stroke-width="2.5" />
<text x="938.0" y="161.8" font-size="10" font-family="monospace" fill="#2d2418">d=1 l=29 worker_terminated</text>
<line x1="475.0" y1="55.0" x2="485.0" y2="65.0" stroke="#aa3d2f" stroke-width="2.5" />
<line x1="475.0" y1="65.0" x2="485.0" y2="55.0" stroke="#aa3d2f" stroke-width="2.5" />
<text x="488.0" y="52.0" font-size="10" font-family="monospace" fill="#2d2418">d=2 l=14 timeout</text>
<line x1="385.0" y1="55.0" x2="395.0" y2="65.0" stroke="#3f7f4f" stroke-width="2.5" />
<line x1="385.0" y1="65.0" x2="395.0" y2="55.0" stroke="#3f7f4f" stroke-width="2.5" />
<text x="398.0" y="52.0" font-size="10" font-family="monospace" fill="#2d2418">d=3 l=11 timeout</text>
<line x1="325.0" y1="55.0" x2="335.0" y2="65.0" stroke="#8357a2" stroke-width="2.5" />
<line x1="325.0" y1="65.0" x2="335.0" y2="55.0" stroke="#8357a2" stroke-width="2.5" />
<text x="338.0" y="52.0" font-size="10" font-family="monospace" fill="#2d2418">d=4 l=9 timeout</text>
<line x1="800" y1="86" x2="818" y2="86" stroke="#35618f" stroke-width="3" />
<circle cx="809" cy="86" r="3.5" fill="#35618f" />
<text x="828" y="90" font-size="12" font-family="monospace" fill="#2d2418">float32 d=1</text>
<line x1="800" y1="106" x2="818" y2="106" stroke="#aa3d2f" stroke-width="3" />
<circle cx="809" cy="106" r="3.5" fill="#aa3d2f" />
<text x="828" y="110" font-size="12" font-family="monospace" fill="#2d2418">float32 d=2</text>
<line x1="800" y1="126" x2="818" y2="126" stroke="#3f7f4f" stroke-width="3" />
<circle cx="809" cy="126" r="3.5" fill="#3f7f4f" />
<text x="828" y="130" font-size="12" font-family="monospace" fill="#2d2418">float32 d=3</text>
<line x1="800" y1="146" x2="818" y2="146" stroke="#8357a2" stroke-width="3" />
<circle cx="809" cy="146" r="3.5" fill="#8357a2" />
<text x="828" y="150" font-size="12" font-family="monospace" fill="#2d2418">float32 d=4</text>
</svg>
