<svg xmlns="http://www.w3.org/2000/svg" viewBox="0 0 840 460" width="840" height="460">
<rect x="0" y="0" width="840" height="460" fill="#fffdf8" />
<text x="420.0" y="28" text-anchor="middle" font-size="20" font-family="monospace" fill="#2d2418">All-dtype Frontier And Timeout Onset</text>
<text x="420.0" y="48" text-anchor="middle" font-size="12" font-family="monospace" fill="#7f6b53">last all-ok level vs first failure after that frontier</text>
<rect x="80" y="60" width="720" height="330" fill="#f7f0e3" stroke="#d8c8b0" />
<line x1="80" y1="390.0" x2="800" y2="390.0" stroke="#d8c8b0" stroke-width="1" />
<text x="70" y="394.0" text-anchor="end" font-size="11" font-family="monospace" fill="#7f6b53">0</text>
<line x1="80" y1="373.5" x2="800" y2="373.5" stroke="#d8c8b0" stroke-width="1" />
<text x="70" y="377.5" text-anchor="end" font-size="11" font-family="monospace" fill="#7f6b53">5</text>
<line x1="80" y1="357.0" x2="800" y2="357.0" stroke="#d8c8b0" stroke-width="1" />
<text x="70" y="361.0" text-anchor="end" font-size="11" font-family="monospace" fill="#7f6b53">10</text>
<line x1="80" y1="340.5" x2="800" y2="340.5" stroke="#d8c8b0" stroke-width="1" />
<text x="70" y="344.5" text-anchor="end" font-size="11" font-family="monospace" fill="#7f6b53">15</text>
<line x1="80" y1="324.0" x2="800" y2="324.0" stroke="#d8c8b0" stroke-width="1" />
<text x="70" y="328.0" text-anchor="end" font-size="11" font-family="monospace" fill="#7f6b53">20</text>
<line x1="80" y1="307.5" x2="800" y2="307.5" stroke="#d8c8b0" stroke-width="1" />
<text x="70" y="311.5" text-anchor="end" font-size="11" font-family="monospace" fill="#7f6b53">25</text>
<line x1="80" y1="291.0" x2="800" y2="291.0" stroke="#d8c8b0" stroke-width="1" />
<text x="70" y="295.0" text-anchor="end" font-size="11" font-family="monospace" fill="#7f6b53">30</text>
<line x1="80" y1="274.5" x2="800" y2="274.5" stroke="#d8c8b0" stroke-width="1" />
<text x="70" y="278.5" text-anchor="end" font-size="11" font-family="monospace" fill="#7f6b53">35</text>
<line x1="80" y1="258.0" x2="800" y2="258.0" stroke="#d8c8b0" stroke-width="1" />
<text x="70" y="262.0" text-anchor="end" font-size="11" font-family="monospace" fill="#7f6b53">40</text>
<line x1="80" y1="241.5" x2="800" y2="241.5" stroke="#d8c8b0" stroke-width="1" />
<text x="70" y="245.5" text-anchor="end" font-size="11" font-family="monospace" fill="#7f6b53">45</text>
<line x1="80" y1="225.0" x2="800" y2="225.0" stroke="#d8c8b0" stroke-width="1" />
<text x="70" y="229.0" text-anchor="end" font-size="11" font-family="monospace" fill="#7f6b53">50</text>
<line x1="80" y1="208.5" x2="800" y2="208.5" stroke="#d8c8b0" stroke-width="1" />
<text x="70" y="212.5" text-anchor="end" font-size="11" font-family="monospace" fill="#7f6b53">55</text>
<line x1="80" y1="192.0" x2="800" y2="192.0" stroke="#d8c8b0" stroke-width="1" />
<text x="70" y="196.0" text-anchor="end" font-size="11" font-family="monospace" fill="#7f6b53">60</text>
<line x1="80" y1="175.5" x2="800" y2="175.5" stroke="#d8c8b0" stroke-width="1" />
<text x="70" y="179.5" text-anchor="end" font-size="11" font-family="monospace" fill="#7f6b53">65</text>
<line x1="80" y1="159.0" x2="800" y2="159.0" stroke="#d8c8b0" stroke-width="1" />
<text x="70" y="163.0" text-anchor="end" font-size="11" font-family="monospace" fill="#7f6b53">70</text>
<line x1="80" y1="142.5" x2="800" y2="142.5" stroke="#d8c8b0" stroke-width="1" />
<text x="70" y="146.5" text-anchor="end" font-size="11" font-family="monospace" fill="#7f6b53">75</text>
<line x1="80" y1="126.0" x2="800" y2="126.0" stroke="#d8c8b0" stroke-width="1" />
<text x="70" y="130.0" text-anchor="end" font-size="11" font-family="monospace" fill="#7f6b53">80</text>
<line x1="80" y1="109.5" x2="800" y2="109.5" stroke="#d8c8b0" stroke-width="1" />
<text x="70" y="113.5" text-anchor="end" font-size="11" font-family="monospace" fill="#7f6b53">85</text>
<line x1="80" y1="93.0" x2="800" y2="93.0" stroke="#d8c8b0" stroke-width="1" />
<text x="70" y="97.0" text-anchor="end" font-size="11" font-family="monospace" fill="#7f6b53">90</text>
<line x1="80" y1="76.5" x2="800" y2="76.5" stroke="#d8c8b0" stroke-width="1" />
<text x="70" y="80.5" text-anchor="end" font-size="11" font-family="monospace" fill="#7f6b53">95</text>
<line x1="80" y1="60.0" x2="800" y2="60.0" stroke="#d8c8b0" stroke-width="1" />
<text x="70" y="64.0" text-anchor="end" font-size="11" font-family="monospace" fill="#7f6b53">100</text>
<line x1="80.0" y1="60" x2="80.0" y2="390" stroke="#d8c8b0" stroke-width="1" />
<text x="80.0" y="428" text-anchor="middle" font-size="12" font-family="monospace" fill="#2d2418">d=1</text>
<line x1="320.0" y1="60" x2="320.0" y2="390" stroke="#d8c8b0" stroke-width="1" />
<text x="320.0" y="428" text-anchor="middle" font-size="12" font-family="monospace" fill="#2d2418">d=2</text>
<line x1="560.0" y1="60" x2="560.0" y2="390" stroke="#d8c8b0" stroke-width="1" />
<text x="560.0" y="428" text-anchor="middle" font-size="12" font-family="monospace" fill="#2d2418">d=3</text>
<line x1="800.0" y1="60" x2="800.0" y2="390" stroke="#d8c8b0" stroke-width="1" />
<text x="800.0" y="428" text-anchor="middle" font-size="12" font-family="monospace" fill="#2d2418">d=4</text>
<circle cx="80.0" cy="297.6" r="6" fill="#2c8c4a" />
<rect x="74.0" y="288.3" width="12" height="12" fill="#d98f2b" />
<circle cx="320.0" cy="347.1" r="6" fill="#2c8c4a" />
<line x1="313.0" y1="336.8" x2="327.0" y2="350.8" stroke="#c0392b" stroke-width="3" />
<line x1="313.0" y1="350.8" x2="327.0" y2="336.8" stroke="#c0392b" stroke-width="3" />
<rect x="314.0" y="291.6" width="12" height="12" fill="#d98f2b" />
<circle cx="560.0" cy="357.0" r="6" fill="#2c8c4a" />
<line x1="553.0" y1="346.7" x2="567.0" y2="360.7" stroke="#c0392b" stroke-width="3" />
<line x1="553.0" y1="360.7" x2="567.0" y2="346.7" stroke="#c0392b" stroke-width="3" />
<rect x="554.0" y="294.9" width="12" height="12" fill="#d98f2b" />
<circle cx="800.0" cy="363.6" r="6" fill="#2c8c4a" />
<line x1="793.0" y1="353.3" x2="807.0" y2="367.3" stroke="#c0392b" stroke-width="3" />
<line x1="793.0" y1="367.3" x2="807.0" y2="353.3" stroke="#c0392b" stroke-width="3" />
<circle cx="590" cy="82" r="5" fill="#2c8c4a" />
<text x="604" y="86" font-size="12" font-family="monospace" fill="#2d2418">last all-ok</text>
<line x1="585" y1="99" x2="595" y2="109" stroke="#c0392b" stroke-width="3" />
<line x1="585" y1="109" x2="595" y2="99" stroke="#c0392b" stroke-width="3" />
<text x="604" y="108" font-size="12" font-family="monospace" fill="#2d2418">first timeout after frontier</text>
<rect x="585" y="121" width="10" height="10" fill="#d98f2b" />
<text x="604" y="130" font-size="12" font-family="monospace" fill="#2d2418">first other failure after frontier</text>
</svg>
