<svg xmlns="http://www.w3.org/2000/svg" width="760" height="360" viewBox="0 0 760 360">
<rect width="760" height="360" fill="#f7f2e8" />
<text x="18" y="22" font-size="18" font-family="monospace" fill="#2b2926">success frontier by dtype</text>
<rect x="72" y="28" width="664" height="284" fill="#fffdfa" stroke="#cabfae" />
<line x1="72.0" y1="28" x2="72.0" y2="312" stroke="#cabfae" stroke-dasharray="3 4" />
<text x="72.0" y="342" text-anchor="middle" font-size="11" font-family="monospace" fill="#2b2926">0</text>
<line x1="78.6" y1="28" x2="78.6" y2="312" stroke="#cabfae" stroke-dasharray="3 4" />
<text x="78.6" y="342" text-anchor="middle" font-size="11" font-family="monospace" fill="#2b2926">1</text>
<line x1="85.3" y1="28" x2="85.3" y2="312" stroke="#cabfae" stroke-dasharray="3 4" />
<text x="85.3" y="342" text-anchor="middle" font-size="11" font-family="monospace" fill="#2b2926">2</text>
<line x1="91.9" y1="28" x2="91.9" y2="312" stroke="#cabfae" stroke-dasharray="3 4" />
<text x="91.9" y="342" text-anchor="middle" font-size="11" font-family="monospace" fill="#2b2926">3</text>
<line x1="98.6" y1="28" x2="98.6" y2="312" stroke="#cabfae" stroke-dasharray="3 4" />
<text x="98.6" y="342" text-anchor="middle" font-size="11" font-family="monospace" fill="#2b2926">4</text>
<line x1="105.2" y1="28" x2="105.2" y2="312" stroke="#cabfae" stroke-dasharray="3 4" />
<text x="105.2" y="342" text-anchor="middle" font-size="11" font-family="monospace" fill="#2b2926">5</text>
<line x1="111.8" y1="28" x2="111.8" y2="312" stroke="#cabfae" stroke-dasharray="3 4" />
<text x="111.8" y="342" text-anchor="middle" font-size="11" font-family="monospace" fill="#2b2926">6</text>
<line x1="118.5" y1="28" x2="118.5" y2="312" stroke="#cabfae" stroke-dasharray="3 4" />
<text x="118.5" y="342" text-anchor="middle" font-size="11" font-family="monospace" fill="#2b2926">7</text>
<line x1="125.1" y1="28" x2="125.1" y2="312" stroke="#cabfae" stroke-dasharray="3 4" />
<text x="125.1" y="342" text-anchor="middle" font-size="11" font-family="monospace" fill="#2b2926">8</text>
<line x1="131.8" y1="28" x2="131.8" y2="312" stroke="#cabfae" stroke-dasharray="3 4" />
<text x="131.8" y="342" text-anchor="middle" font-size="11" font-family="monospace" fill="#2b2926">9</text>
<line x1="138.4" y1="28" x2="138.4" y2="312" stroke="#cabfae" stroke-dasharray="3 4" />
<text x="138.4" y="342" text-anchor="middle" font-size="11" font-family="monospace" fill="#2b2926">10</text>
<line x1="145.0" y1="28" x2="145.0" y2="312" stroke="#cabfae" stroke-dasharray="3 4" />
<text x="145.0" y="342" text-anchor="middle" font-size="11" font-family="monospace" fill="#2b2926">11</text>
<line x1="151.7" y1="28" x2="151.7" y2="312" stroke="#cabfae" stroke-dasharray="3 4" />
<text x="151.7" y="342" text-anchor="middle" font-size="11" font-family="monospace" fill="#2b2926">12</text>
<line x1="158.3" y1="28" x2="158.3" y2="312" stroke="#cabfae" stroke-dasharray="3 4" />
<text x="158.3" y="342" text-anchor="middle" font-size="11" font-family="monospace" fill="#2b2926">13</text>
<line x1="165.0" y1="28" x2="165.0" y2="312" stroke="#cabfae" stroke-dasharray="3 4" />
<text x="165.0" y="342" text-anchor="middle" font-size="11" font-family="monospace" fill="#2b2926">14</text>
<line x1="171.6" y1="28" x2="171.6" y2="312" stroke="#cabfae" stroke-dasharray="3 4" />
<text x="171.6" y="342" text-anchor="middle" font-size="11" font-family="monospace" fill="#2b2926">15</text>
<line x1="178.2" y1="28" x2="178.2" y2="312" stroke="#cabfae" stroke-dasharray="3 4" />
<text x="178.2" y="342" text-anchor="middle" font-size="11" font-family="monospace" fill="#2b2926">16</text>
<line x1="184.9" y1="28" x2="184.9" y2="312" stroke="#cabfae" stroke-dasharray="3 4" />
<text x="184.9" y="342" text-anchor="middle" font-size="11" font-family="monospace" fill="#2b2926">17</text>
<line x1="191.5" y1="28" x2="191.5" y2="312" stroke="#cabfae" stroke-dasharray="3 4" />
<text x="191.5" y="342" text-anchor="middle" font-size="11" font-family="monospace" fill="#2b2926">18</text>
<line x1="198.2" y1="28" x2="198.2" y2="312" stroke="#cabfae" stroke-dasharray="3 4" />
<text x="198.2" y="342" text-anchor="middle" font-size="11" font-family="monospace" fill="#2b2926">19</text>
<line x1="204.8" y1="28" x2="204.8" y2="312" stroke="#cabfae" stroke-dasharray="3 4" />
<text x="204.8" y="342" text-anchor="middle" font-size="11" font-family="monospace" fill="#2b2926">20</text>
<line x1="211.4" y1="28" x2="211.4" y2="312" stroke="#cabfae" stroke-dasharray="3 4" />
<text x="211.4" y="342" text-anchor="middle" font-size="11" font-family="monospace" fill="#2b2926">21</text>
<line x1="218.1" y1="28" x2="218.1" y2="312" stroke="#cabfae" stroke-dasharray="3 4" />
<text x="218.1" y="342" text-anchor="middle" font-size="11" font-family="monospace" fill="#2b2926">22</text>
<line x1="224.7" y1="28" x2="224.7" y2="312" stroke="#cabfae" stroke-dasharray="3 4" />
<text x="224.7" y="342" text-anchor="middle" font-size="11" font-family="monospace" fill="#2b2926">23</text>
<line x1="231.4" y1="28" x2="231.4" y2="312" stroke="#cabfae" stroke-dasharray="3 4" />
<text x="231.4" y="342" text-anchor="middle" font-size="11" font-family="monospace" fill="#2b2926">24</text>
<line x1="238.0" y1="28" x2="238.0" y2="312" stroke="#cabfae" stroke-dasharray="3 4" />
<text x="238.0" y="342" text-anchor="middle" font-size="11" font-family="monospace" fill="#2b2926">25</text>
<line x1="244.6" y1="28" x2="244.6" y2="312" stroke="#cabfae" stroke-dasharray="3 4" />
<text x="244.6" y="342" text-anchor="middle" font-size="11" font-family="monospace" fill="#2b2926">26</text>
<line x1="251.3" y1="28" x2="251.3" y2="312" stroke="#cabfae" stroke-dasharray="3 4" />
<text x="251.3" y="342" text-anchor="middle" font-size="11" font-family="monospace" fill="#2b2926">27</text>
<line x1="257.9" y1="28" x2="257.9" y2="312" stroke="#cabfae" stroke-dasharray="3 4" />
<text x="257.9" y="342" text-anchor="middle" font-size="11" font-family="monospace" fill="#2b2926">28</text>
<line x1="264.6" y1="28" x2="264.6" y2="312" stroke="#cabfae" stroke-dasharray="3 4" />
<text x="264.6" y="342" text-anchor="middle" font-size="11" font-family="monospace" fill="#2b2926">29</text>
<line x1="271.2" y1="28" x2="271.2" y2="312" stroke="#cabfae" stroke-dasharray="3 4" />
<text x="271.2" y="342" text-anchor="middle" font-size="11" font-family="monospace" fill="#2b2926">30</text>
<line x1="277.8" y1="28" x2="277.8" y2="312" stroke="#cabfae" stroke-dasharray="3 4" />
<text x="277.8" y="342" text-anchor="middle" font-size="11" font-family="monospace" fill="#2b2926">31</text>
<line x1="284.5" y1="28" x2="284.5" y2="312" stroke="#cabfae" stroke-dasharray="3 4" />
<text x="284.5" y="342" text-anchor="middle" font-size="11" font-family="monospace" fill="#2b2926">32</text>
<line x1="291.1" y1="28" x2="291.1" y2="312" stroke="#cabfae" stroke-dasharray="3 4" />
<text x="291.1" y="342" text-anchor="middle" font-size="11" font-family="monospace" fill="#2b2926">33</text>
<line x1="297.8" y1="28" x2="297.8" y2="312" stroke="#cabfae" stroke-dasharray="3 4" />
<text x="297.8" y="342" text-anchor="middle" font-size="11" font-family="monospace" fill="#2b2926">34</text>
<line x1="304.4" y1="28" x2="304.4" y2="312" stroke="#cabfae" stroke-dasharray="3 4" />
<text x="304.4" y="342" text-anchor="middle" font-size="11" font-family="monospace" fill="#2b2926">35</text>
<line x1="311.0" y1="28" x2="311.0" y2="312" stroke="#cabfae" stroke-dasharray="3 4" />
<text x="311.0" y="342" text-anchor="middle" font-size="11" font-family="monospace" fill="#2b2926">36</text>
<line x1="317.7" y1="28" x2="317.7" y2="312" stroke="#cabfae" stroke-dasharray="3 4" />
<text x="317.7" y="342" text-anchor="middle" font-size="11" font-family="monospace" fill="#2b2926">37</text>
<line x1="324.3" y1="28" x2="324.3" y2="312" stroke="#cabfae" stroke-dasharray="3 4" />
<text x="324.3" y="342" text-anchor="middle" font-size="11" font-family="monospace" fill="#2b2926">38</text>
<line x1="331.0" y1="28" x2="331.0" y2="312" stroke="#cabfae" stroke-dasharray="3 4" />
<text x="331.0" y="342" text-anchor="middle" font-size="11" font-family="monospace" fill="#2b2926">39</text>
<line x1="337.6" y1="28" x2="337.6" y2="312" stroke="#cabfae" stroke-dasharray="3 4" />
<text x="337.6" y="342" text-anchor="middle" font-size="11" font-family="monospace" fill="#2b2926">40</text>
<line x1="344.2" y1="28" x2="344.2" y2="312" stroke="#cabfae" stroke-dasharray="3 4" />
<text x="344.2" y="342" text-anchor="middle" font-size="11" font-family="monospace" fill="#2b2926">41</text>
<line x1="350.9" y1="28" x2="350.9" y2="312" stroke="#cabfae" stroke-dasharray="3 4" />
<text x="350.9" y="342" text-anchor="middle" font-size="11" font-family="monospace" fill="#2b2926">42</text>
<line x1="357.5" y1="28" x2="357.5" y2="312" stroke="#cabfae" stroke-dasharray="3 4" />
<text x="357.5" y="342" text-anchor="middle" font-size="11" font-family="monospace" fill="#2b2926">43</text>
<line x1="364.2" y1="28" x2="364.2" y2="312" stroke="#cabfae" stroke-dasharray="3 4" />
<text x="364.2" y="342" text-anchor="middle" font-size="11" font-family="monospace" fill="#2b2926">44</text>
<line x1="370.8" y1="28" x2="370.8" y2="312" stroke="#cabfae" stroke-dasharray="3 4" />
<text x="370.8" y="342" text-anchor="middle" font-size="11" font-family="monospace" fill="#2b2926">45</text>
<line x1="377.4" y1="28" x2="377.4" y2="312" stroke="#cabfae" stroke-dasharray="3 4" />
<text x="377.4" y="342" text-anchor="middle" font-size="11" font-family="monospace" fill="#2b2926">46</text>
<line x1="384.1" y1="28" x2="384.1" y2="312" stroke="#cabfae" stroke-dasharray="3 4" />
<text x="384.1" y="342" text-anchor="middle" font-size="11" font-family="monospace" fill="#2b2926">47</text>
<line x1="390.7" y1="28" x2="390.7" y2="312" stroke="#cabfae" stroke-dasharray="3 4" />
<text x="390.7" y="342" text-anchor="middle" font-size="11" font-family="monospace" fill="#2b2926">48</text>
<line x1="397.4" y1="28" x2="397.4" y2="312" stroke="#cabfae" stroke-dasharray="3 4" />
<text x="397.4" y="342" text-anchor="middle" font-size="11" font-family="monospace" fill="#2b2926">49</text>
<line x1="404.0" y1="28" x2="404.0" y2="312" stroke="#cabfae" stroke-dasharray="3 4" />
<text x="404.0" y="342" text-anchor="middle" font-size="11" font-family="monospace" fill="#2b2926">50</text>
<line x1="410.6" y1="28" x2="410.6" y2="312" stroke="#cabfae" stroke-dasharray="3 4" />
<text x="410.6" y="342" text-anchor="middle" font-size="11" font-family="monospace" fill="#2b2926">51</text>
<line x1="417.3" y1="28" x2="417.3" y2="312" stroke="#cabfae" stroke-dasharray="3 4" />
<text x="417.3" y="342" text-anchor="middle" font-size="11" font-family="monospace" fill="#2b2926">52</text>
<line x1="423.9" y1="28" x2="423.9" y2="312" stroke="#cabfae" stroke-dasharray="3 4" />
<text x="423.9" y="342" text-anchor="middle" font-size="11" font-family="monospace" fill="#2b2926">53</text>
<line x1="430.6" y1="28" x2="430.6" y2="312" stroke="#cabfae" stroke-dasharray="3 4" />
<text x="430.6" y="342" text-anchor="middle" font-size="11" font-family="monospace" fill="#2b2926">54</text>
<line x1="437.2" y1="28" x2="437.2" y2="312" stroke="#cabfae" stroke-dasharray="3 4" />
<text x="437.2" y="342" text-anchor="middle" font-size="11" font-family="monospace" fill="#2b2926">55</text>
<line x1="443.8" y1="28" x2="443.8" y2="312" stroke="#cabfae" stroke-dasharray="3 4" />
<text x="443.8" y="342" text-anchor="middle" font-size="11" font-family="monospace" fill="#2b2926">56</text>
<line x1="450.5" y1="28" x2="450.5" y2="312" stroke="#cabfae" stroke-dasharray="3 4" />
<text x="450.5" y="342" text-anchor="middle" font-size="11" font-family="monospace" fill="#2b2926">57</text>
<line x1="457.1" y1="28" x2="457.1" y2="312" stroke="#cabfae" stroke-dasharray="3 4" />
<text x="457.1" y="342" text-anchor="middle" font-size="11" font-family="monospace" fill="#2b2926">58</text>
<line x1="463.8" y1="28" x2="463.8" y2="312" stroke="#cabfae" stroke-dasharray="3 4" />
<text x="463.8" y="342" text-anchor="middle" font-size="11" font-family="monospace" fill="#2b2926">59</text>
<line x1="470.4" y1="28" x2="470.4" y2="312" stroke="#cabfae" stroke-dasharray="3 4" />
<text x="470.4" y="342" text-anchor="middle" font-size="11" font-family="monospace" fill="#2b2926">60</text>
<line x1="477.0" y1="28" x2="477.0" y2="312" stroke="#cabfae" stroke-dasharray="3 4" />
<text x="477.0" y="342" text-anchor="middle" font-size="11" font-family="monospace" fill="#2b2926">61</text>
<line x1="483.7" y1="28" x2="483.7" y2="312" stroke="#cabfae" stroke-dasharray="3 4" />
<text x="483.7" y="342" text-anchor="middle" font-size="11" font-family="monospace" fill="#2b2926">62</text>
<line x1="490.3" y1="28" x2="490.3" y2="312" stroke="#cabfae" stroke-dasharray="3 4" />
<text x="490.3" y="342" text-anchor="middle" font-size="11" font-family="monospace" fill="#2b2926">63</text>
<line x1="497.0" y1="28" x2="497.0" y2="312" stroke="#cabfae" stroke-dasharray="3 4" />
<text x="497.0" y="342" text-anchor="middle" font-size="11" font-family="monospace" fill="#2b2926">64</text>
<line x1="503.6" y1="28" x2="503.6" y2="312" stroke="#cabfae" stroke-dasharray="3 4" />
<text x="503.6" y="342" text-anchor="middle" font-size="11" font-family="monospace" fill="#2b2926">65</text>
<line x1="510.2" y1="28" x2="510.2" y2="312" stroke="#cabfae" stroke-dasharray="3 4" />
<text x="510.2" y="342" text-anchor="middle" font-size="11" font-family="monospace" fill="#2b2926">66</text>
<line x1="516.9" y1="28" x2="516.9" y2="312" stroke="#cabfae" stroke-dasharray="3 4" />
<text x="516.9" y="342" text-anchor="middle" font-size="11" font-family="monospace" fill="#2b2926">67</text>
<line x1="523.5" y1="28" x2="523.5" y2="312" stroke="#cabfae" stroke-dasharray="3 4" />
<text x="523.5" y="342" text-anchor="middle" font-size="11" font-family="monospace" fill="#2b2926">68</text>
<line x1="530.2" y1="28" x2="530.2" y2="312" stroke="#cabfae" stroke-dasharray="3 4" />
<text x="530.2" y="342" text-anchor="middle" font-size="11" font-family="monospace" fill="#2b2926">69</text>
<line x1="536.8" y1="28" x2="536.8" y2="312" stroke="#cabfae" stroke-dasharray="3 4" />
<text x="536.8" y="342" text-anchor="middle" font-size="11" font-family="monospace" fill="#2b2926">70</text>
<line x1="543.4" y1="28" x2="543.4" y2="312" stroke="#cabfae" stroke-dasharray="3 4" />
<text x="543.4" y="342" text-anchor="middle" font-size="11" font-family="monospace" fill="#2b2926">71</text>
<line x1="550.1" y1="28" x2="550.1" y2="312" stroke="#cabfae" stroke-dasharray="3 4" />
<text x="550.1" y="342" text-anchor="middle" font-size="11" font-family="monospace" fill="#2b2926">72</text>
<line x1="556.7" y1="28" x2="556.7" y2="312" stroke="#cabfae" stroke-dasharray="3 4" />
<text x="556.7" y="342" text-anchor="middle" font-size="11" font-family="monospace" fill="#2b2926">73</text>
<line x1="563.4" y1="28" x2="563.4" y2="312" stroke="#cabfae" stroke-dasharray="3 4" />
<text x="563.4" y="342" text-anchor="middle" font-size="11" font-family="monospace" fill="#2b2926">74</text>
<line x1="570.0" y1="28" x2="570.0" y2="312" stroke="#cabfae" stroke-dasharray="3 4" />
<text x="570.0" y="342" text-anchor="middle" font-size="11" font-family="monospace" fill="#2b2926">75</text>
<line x1="576.6" y1="28" x2="576.6" y2="312" stroke="#cabfae" stroke-dasharray="3 4" />
<text x="576.6" y="342" text-anchor="middle" font-size="11" font-family="monospace" fill="#2b2926">76</text>
<line x1="583.3" y1="28" x2="583.3" y2="312" stroke="#cabfae" stroke-dasharray="3 4" />
<text x="583.3" y="342" text-anchor="middle" font-size="11" font-family="monospace" fill="#2b2926">77</text>
<line x1="589.9" y1="28" x2="589.9" y2="312" stroke="#cabfae" stroke-dasharray="3 4" />
<text x="589.9" y="342" text-anchor="middle" font-size="11" font-family="monospace" fill="#2b2926">78</text>
<line x1="596.6" y1="28" x2="596.6" y2="312" stroke="#cabfae" stroke-dasharray="3 4" />
<text x="596.6" y="342" text-anchor="middle" font-size="11" font-family="monospace" fill="#2b2926">79</text>
<line x1="603.2" y1="28" x2="603.2" y2="312" stroke="#cabfae" stroke-dasharray="3 4" />
<text x="603.2" y="342" text-anchor="middle" font-size="11" font-family="monospace" fill="#2b2926">80</text>
<line x1="609.8" y1="28" x2="609.8" y2="312" stroke="#cabfae" stroke-dasharray="3 4" />
<text x="609.8" y="342" text-anchor="middle" font-size="11" font-family="monospace" fill="#2b2926">81</text>
<line x1="616.5" y1="28" x2="616.5" y2="312" stroke="#cabfae" stroke-dasharray="3 4" />
<text x="616.5" y="342" text-anchor="middle" font-size="11" font-family="monospace" fill="#2b2926">82</text>
<line x1="623.1" y1="28" x2="623.1" y2="312" stroke="#cabfae" stroke-dasharray="3 4" />
<text x="623.1" y="342" text-anchor="middle" font-size="11" font-family="monospace" fill="#2b2926">83</text>
<line x1="629.8" y1="28" x2="629.8" y2="312" stroke="#cabfae" stroke-dasharray="3 4" />
<text x="629.8" y="342" text-anchor="middle" font-size="11" font-family="monospace" fill="#2b2926">84</text>
<line x1="636.4" y1="28" x2="636.4" y2="312" stroke="#cabfae" stroke-dasharray="3 4" />
<text x="636.4" y="342" text-anchor="middle" font-size="11" font-family="monospace" fill="#2b2926">85</text>
<line x1="643.0" y1="28" x2="643.0" y2="312" stroke="#cabfae" stroke-dasharray="3 4" />
<text x="643.0" y="342" text-anchor="middle" font-size="11" font-family="monospace" fill="#2b2926">86</text>
<line x1="649.7" y1="28" x2="649.7" y2="312" stroke="#cabfae" stroke-dasharray="3 4" />
<text x="649.7" y="342" text-anchor="middle" font-size="11" font-family="monospace" fill="#2b2926">87</text>
<line x1="656.3" y1="28" x2="656.3" y2="312" stroke="#cabfae" stroke-dasharray="3 4" />
<text x="656.3" y="342" text-anchor="middle" font-size="11" font-family="monospace" fill="#2b2926">88</text>
<line x1="663.0" y1="28" x2="663.0" y2="312" stroke="#cabfae" stroke-dasharray="3 4" />
<text x="663.0" y="342" text-anchor="middle" font-size="11" font-family="monospace" fill="#2b2926">89</text>
<line x1="669.6" y1="28" x2="669.6" y2="312" stroke="#cabfae" stroke-dasharray="3 4" />
<text x="669.6" y="342" text-anchor="middle" font-size="11" font-family="monospace" fill="#2b2926">90</text>
<line x1="676.2" y1="28" x2="676.2" y2="312" stroke="#cabfae" stroke-dasharray="3 4" />
<text x="676.2" y="342" text-anchor="middle" font-size="11" font-family="monospace" fill="#2b2926">91</text>
<line x1="682.9" y1="28" x2="682.9" y2="312" stroke="#cabfae" stroke-dasharray="3 4" />
<text x="682.9" y="342" text-anchor="middle" font-size="11" font-family="monospace" fill="#2b2926">92</text>
<line x1="689.5" y1="28" x2="689.5" y2="312" stroke="#cabfae" stroke-dasharray="3 4" />
<text x="689.5" y="342" text-anchor="middle" font-size="11" font-family="monospace" fill="#2b2926">93</text>
<line x1="696.2" y1="28" x2="696.2" y2="312" stroke="#cabfae" stroke-dasharray="3 4" />
<text x="696.2" y="342" text-anchor="middle" font-size="11" font-family="monospace" fill="#2b2926">94</text>
<line x1="702.8" y1="28" x2="702.8" y2="312" stroke="#cabfae" stroke-dasharray="3 4" />
<text x="702.8" y="342" text-anchor="middle" font-size="11" font-family="monospace" fill="#2b2926">95</text>
<line x1="709.4" y1="28" x2="709.4" y2="312" stroke="#cabfae" stroke-dasharray="3 4" />
<text x="709.4" y="342" text-anchor="middle" font-size="11" font-family="monospace" fill="#2b2926">96</text>
<line x1="716.1" y1="28" x2="716.1" y2="312" stroke="#cabfae" stroke-dasharray="3 4" />
<text x="716.1" y="342" text-anchor="middle" font-size="11" font-family="monospace" fill="#2b2926">97</text>
<line x1="722.7" y1="28" x2="722.7" y2="312" stroke="#cabfae" stroke-dasharray="3 4" />
<text x="722.7" y="342" text-anchor="middle" font-size="11" font-family="monospace" fill="#2b2926">98</text>
<line x1="729.4" y1="28" x2="729.4" y2="312" stroke="#cabfae" stroke-dasharray="3 4" />
<text x="729.4" y="342" text-anchor="middle" font-size="11" font-family="monospace" fill="#2b2926">99</text>
<line x1="736.0" y1="28" x2="736.0" y2="312" stroke="#cabfae" stroke-dasharray="3 4" />
<text x="736.0" y="342" text-anchor="middle" font-size="11" font-family="monospace" fill="#2b2926">100</text>
<line x1="72" y1="406.7" x2="736" y2="406.7" stroke="#cabfae" stroke-dasharray="3 4" />
<text x="60" y="410.7" text-anchor="end" font-size="11" font-family="monospace" fill="#2b2926">0</text>
<line x1="72" y1="312.0" x2="736" y2="312.0" stroke="#cabfae" stroke-dasharray="3 4" />
<text x="60" y="316.0" text-anchor="end" font-size="11" font-family="monospace" fill="#2b2926">1</text>
<line x1="72" y1="217.3" x2="736" y2="217.3" stroke="#cabfae" stroke-dasharray="3 4" />
<text x="60" y="221.3" text-anchor="end" font-size="11" font-family="monospace" fill="#2b2926">2</text>
<line x1="72" y1="122.7" x2="736" y2="122.7" stroke="#cabfae" stroke-dasharray="3 4" />
<text x="60" y="126.7" text-anchor="end" font-size="11" font-family="monospace" fill="#2b2926">3</text>
<line x1="72" y1="28.0" x2="736" y2="28.0" stroke="#cabfae" stroke-dasharray="3 4" />
<text x="60" y="32.0" text-anchor="end" font-size="11" font-family="monospace" fill="#2b2926">4</text>
<text x="404.0" y="356" text-anchor="middle" font-size="12" font-family="monospace" fill="#2b2926">level</text>
<text x="20" y="170.0" transform="rotate(-90 20 170.0)" text-anchor="middle" font-size="12" font-family="monospace" fill="#2b2926">max success dimension</text>
<polyline fill="none" stroke="#1f5f7a" stroke-width="3" points="78.6,28.0 85.3,28.0 91.9,28.0 98.6,28.0 105.2,28.0 111.8,28.0 118.5,28.0 125.1,28.0 131.8,122.7 138.4,122.7 145.0,217.3 151.7,217.3 158.3,217.3 165.0,312.0 171.6,312.0 178.2,312.0 184.9,312.0 191.5,312.0 198.2,312.0 204.8,312.0 211.4,312.0 218.1,312.0 244.6,312.0 257.9,312.0" />
<circle cx="78.6" cy="28.0" r="4" fill="#1f5f7a" />
<circle cx="85.3" cy="28.0" r="4" fill="#1f5f7a" />
<circle cx="91.9" cy="28.0" r="4" fill="#1f5f7a" />
<circle cx="98.6" cy="28.0" r="4" fill="#1f5f7a" />
<circle cx="105.2" cy="28.0" r="4" fill="#1f5f7a" />
<circle cx="111.8" cy="28.0" r="4" fill="#1f5f7a" />
<circle cx="118.5" cy="28.0" r="4" fill="#1f5f7a" />
<circle cx="125.1" cy="28.0" r="4" fill="#1f5f7a" />
<circle cx="131.8" cy="122.7" r="4" fill="#1f5f7a" />
<circle cx="138.4" cy="122.7" r="4" fill="#1f5f7a" />
<circle cx="145.0" cy="217.3" r="4" fill="#1f5f7a" />
<circle cx="151.7" cy="217.3" r="4" fill="#1f5f7a" />
<circle cx="158.3" cy="217.3" r="4" fill="#1f5f7a" />
<circle cx="165.0" cy="312.0" r="4" fill="#1f5f7a" />
<circle cx="171.6" cy="312.0" r="4" fill="#1f5f7a" />
<circle cx="178.2" cy="312.0" r="4" fill="#1f5f7a" />
<circle cx="184.9" cy="312.0" r="4" fill="#1f5f7a" />
<circle cx="191.5" cy="312.0" r="4" fill="#1f5f7a" />
<circle cx="198.2" cy="312.0" r="4" fill="#1f5f7a" />
<circle cx="204.8" cy="312.0" r="4" fill="#1f5f7a" />
<circle cx="211.4" cy="312.0" r="4" fill="#1f5f7a" />
<circle cx="218.1" cy="312.0" r="4" fill="#1f5f7a" />
<circle cx="244.6" cy="312.0" r="4" fill="#1f5f7a" />
<circle cx="257.9" cy="312.0" r="4" fill="#1f5f7a" />
<line x1="600" y1="26" x2="620" y2="26" stroke="#1f5f7a" stroke-width="3" />
<text x="628" y="30" font-size="11" font-family="monospace" fill="#2b2926">float16</text>
<polyline fill="none" stroke="#c9573b" stroke-width="3" points="78.6,28.0 85.3,28.0 91.9,28.0 98.6,28.0 105.2,28.0 111.8,28.0 118.5,28.0 125.1,28.0 131.8,122.7 138.4,122.7 145.0,217.3 151.7,217.3 158.3,217.3 165.0,312.0 171.6,312.0 178.2,312.0 184.9,312.0 191.5,312.0 198.2,312.0 204.8,312.0 211.4,312.0 218.1,312.0 238.0,312.0 244.6,312.0 257.9,312.0" />
<circle cx="78.6" cy="28.0" r="4" fill="#c9573b" />
<circle cx="85.3" cy="28.0" r="4" fill="#c9573b" />
<circle cx="91.9" cy="28.0" r="4" fill="#c9573b" />
<circle cx="98.6" cy="28.0" r="4" fill="#c9573b" />
<circle cx="105.2" cy="28.0" r="4" fill="#c9573b" />
<circle cx="111.8" cy="28.0" r="4" fill="#c9573b" />
<circle cx="118.5" cy="28.0" r="4" fill="#c9573b" />
<circle cx="125.1" cy="28.0" r="4" fill="#c9573b" />
<circle cx="131.8" cy="122.7" r="4" fill="#c9573b" />
<circle cx="138.4" cy="122.7" r="4" fill="#c9573b" />
<circle cx="145.0" cy="217.3" r="4" fill="#c9573b" />
<circle cx="151.7" cy="217.3" r="4" fill="#c9573b" />
<circle cx="158.3" cy="217.3" r="4" fill="#c9573b" />
<circle cx="165.0" cy="312.0" r="4" fill="#c9573b" />
<circle cx="171.6" cy="312.0" r="4" fill="#c9573b" />
<circle cx="178.2" cy="312.0" r="4" fill="#c9573b" />
<circle cx="184.9" cy="312.0" r="4" fill="#c9573b" />
<circle cx="191.5" cy="312.0" r="4" fill="#c9573b" />
<circle cx="198.2" cy="312.0" r="4" fill="#c9573b" />
<circle cx="204.8" cy="312.0" r="4" fill="#c9573b" />
<circle cx="211.4" cy="312.0" r="4" fill="#c9573b" />
<circle cx="218.1" cy="312.0" r="4" fill="#c9573b" />
<circle cx="238.0" cy="312.0" r="4" fill="#c9573b" />
<circle cx="244.6" cy="312.0" r="4" fill="#c9573b" />
<circle cx="257.9" cy="312.0" r="4" fill="#c9573b" />
<line x1="600" y1="44" x2="620" y2="44" stroke="#c9573b" stroke-width="3" />
<text x="628" y="48" font-size="11" font-family="monospace" fill="#2b2926">bfloat16</text>
<polyline fill="none" stroke="#7d6b2f" stroke-width="3" points="78.6,28.0 85.3,28.0 91.9,28.0 98.6,28.0 105.2,28.0 111.8,28.0 118.5,28.0 125.1,28.0 131.8,122.7 138.4,122.7 145.0,217.3 151.7,217.3 158.3,217.3 165.0,312.0 171.6,312.0 178.2,312.0 184.9,312.0 191.5,312.0 198.2,312.0 204.8,312.0 211.4,312.0 218.1,312.0 224.7,312.0 231.4,312.0 238.0,312.0 244.6,312.0 257.9,312.0" />
<circle cx="78.6" cy="28.0" r="4" fill="#7d6b2f" />
<circle cx="85.3" cy="28.0" r="4" fill="#7d6b2f" />
<circle cx="91.9" cy="28.0" r="4" fill="#7d6b2f" />
<circle cx="98.6" cy="28.0" r="4" fill="#7d6b2f" />
<circle cx="105.2" cy="28.0" r="4" fill="#7d6b2f" />
<circle cx="111.8" cy="28.0" r="4" fill="#7d6b2f" />
<circle cx="118.5" cy="28.0" r="4" fill="#7d6b2f" />
<circle cx="125.1" cy="28.0" r="4" fill="#7d6b2f" />
<circle cx="131.8" cy="122.7" r="4" fill="#7d6b2f" />
<circle cx="138.4" cy="122.7" r="4" fill="#7d6b2f" />
<circle cx="145.0" cy="217.3" r="4" fill="#7d6b2f" />
<circle cx="151.7" cy="217.3" r="4" fill="#7d6b2f" />
<circle cx="158.3" cy="217.3" r="4" fill="#7d6b2f" />
<circle cx="165.0" cy="312.0" r="4" fill="#7d6b2f" />
<circle cx="171.6" cy="312.0" r="4" fill="#7d6b2f" />
<circle cx="178.2" cy="312.0" r="4" fill="#7d6b2f" />
<circle cx="184.9" cy="312.0" r="4" fill="#7d6b2f" />
<circle cx="191.5" cy="312.0" r="4" fill="#7d6b2f" />
<circle cx="198.2" cy="312.0" r="4" fill="#7d6b2f" />
<circle cx="204.8" cy="312.0" r="4" fill="#7d6b2f" />
<circle cx="211.4" cy="312.0" r="4" fill="#7d6b2f" />
<circle cx="218.1" cy="312.0" r="4" fill="#7d6b2f" />
<circle cx="224.7" cy="312.0" r="4" fill="#7d6b2f" />
<circle cx="231.4" cy="312.0" r="4" fill="#7d6b2f" />
<circle cx="238.0" cy="312.0" r="4" fill="#7d6b2f" />
<circle cx="244.6" cy="312.0" r="4" fill="#7d6b2f" />
<circle cx="257.9" cy="312.0" r="4" fill="#7d6b2f" />
<line x1="600" y1="62" x2="620" y2="62" stroke="#7d6b2f" stroke-width="3" />
<text x="628" y="66" font-size="11" font-family="monospace" fill="#2b2926">float32</text>
<polyline fill="none" stroke="#6d4ea1" stroke-width="3" points="78.6,28.0 85.3,28.0 91.9,28.0 98.6,28.0 105.2,28.0 111.8,28.0 118.5,28.0 125.1,28.0 131.8,122.7 138.4,122.7 145.0,217.3 151.7,217.3 158.3,217.3 165.0,312.0 171.6,312.0 178.2,312.0 184.9,312.0 191.5,312.0 198.2,312.0 204.8,312.0 211.4,312.0 218.1,312.0 224.7,312.0 238.0,312.0 251.3,312.0 257.9,312.0" />
<circle cx="78.6" cy="28.0" r="4" fill="#6d4ea1" />
<circle cx="85.3" cy="28.0" r="4" fill="#6d4ea1" />
<circle cx="91.9" cy="28.0" r="4" fill="#6d4ea1" />
<circle cx="98.6" cy="28.0" r="4" fill="#6d4ea1" />
<circle cx="105.2" cy="28.0" r="4" fill="#6d4ea1" />
<circle cx="111.8" cy="28.0" r="4" fill="#6d4ea1" />
<circle cx="118.5" cy="28.0" r="4" fill="#6d4ea1" />
<circle cx="125.1" cy="28.0" r="4" fill="#6d4ea1" />
<circle cx="131.8" cy="122.7" r="4" fill="#6d4ea1" />
<circle cx="138.4" cy="122.7" r="4" fill="#6d4ea1" />
<circle cx="145.0" cy="217.3" r="4" fill="#6d4ea1" />
<circle cx="151.7" cy="217.3" r="4" fill="#6d4ea1" />
<circle cx="158.3" cy="217.3" r="4" fill="#6d4ea1" />
<circle cx="165.0" cy="312.0" r="4" fill="#6d4ea1" />
<circle cx="171.6" cy="312.0" r="4" fill="#6d4ea1" />
<circle cx="178.2" cy="312.0" r="4" fill="#6d4ea1" />
<circle cx="184.9" cy="312.0" r="4" fill="#6d4ea1" />
<circle cx="191.5" cy="312.0" r="4" fill="#6d4ea1" />
<circle cx="198.2" cy="312.0" r="4" fill="#6d4ea1" />
<circle cx="204.8" cy="312.0" r="4" fill="#6d4ea1" />
<circle cx="211.4" cy="312.0" r="4" fill="#6d4ea1" />
<circle cx="218.1" cy="312.0" r="4" fill="#6d4ea1" />
<circle cx="224.7" cy="312.0" r="4" fill="#6d4ea1" />
<circle cx="238.0" cy="312.0" r="4" fill="#6d4ea1" />
<circle cx="251.3" cy="312.0" r="4" fill="#6d4ea1" />
<circle cx="257.9" cy="312.0" r="4" fill="#6d4ea1" />
<line x1="600" y1="80" x2="620" y2="80" stroke="#6d4ea1" stroke-width="3" />
<text x="628" y="84" font-size="11" font-family="monospace" fill="#2b2926">float64</text>
</svg>