<svg xmlns="http://www.w3.org/2000/svg" width="760" height="360" viewBox="0 0 760 360">
<rect width="760" height="360" fill="#f7f2e8" />
<text x="18" y="22" font-size="18" font-family="monospace" fill="#2b2926">success frontier by dtype</text>
<rect x="72" y="28" width="664" height="284" fill="#fffdfa" stroke="#cabfae" />
<line x1="72.0" y1="28" x2="72.0" y2="312" stroke="#cabfae" stroke-dasharray="3 4" />
<text x="72.0" y="342" text-anchor="middle" font-size="11" font-family="monospace" fill="#2b2926">0</text>
<line x1="736.0" y1="28" x2="736.0" y2="312" stroke="#cabfae" stroke-dasharray="3 4" />
<text x="736.0" y="342" text-anchor="middle" font-size="11" font-family="monospace" fill="#2b2926">1</text>
<line x1="72" y1="314.9" x2="736" y2="314.9" stroke="#cabfae" stroke-dasharray="3 4" />
<text x="60" y="318.9" text-anchor="end" font-size="11" font-family="monospace" fill="#2b2926">0</text>
<line x1="72" y1="312.0" x2="736" y2="312.0" stroke="#cabfae" stroke-dasharray="3 4" />
<text x="60" y="316.0" text-anchor="end" font-size="11" font-family="monospace" fill="#2b2926">1</text>
<line x1="72" y1="309.1" x2="736" y2="309.1" stroke="#cabfae" stroke-dasharray="3 4" />
<text x="60" y="313.1" text-anchor="end" font-size="11" font-family="monospace" fill="#2b2926">2</text>
<line x1="72" y1="306.3" x2="736" y2="306.3" stroke="#cabfae" stroke-dasharray="3 4" />
<text x="60" y="310.3" text-anchor="end" font-size="11" font-family="monospace" fill="#2b2926">3</text>
<line x1="72" y1="303.4" x2="736" y2="303.4" stroke="#cabfae" stroke-dasharray="3 4" />
<text x="60" y="307.4" text-anchor="end" font-size="11" font-family="monospace" fill="#2b2926">4</text>
<line x1="72" y1="300.5" x2="736" y2="300.5" stroke="#cabfae" stroke-dasharray="3 4" />
<text x="60" y="304.5" text-anchor="end" font-size="11" font-family="monospace" fill="#2b2926">5</text>
<line x1="72" y1="297.7" x2="736" y2="297.7" stroke="#cabfae" stroke-dasharray="3 4" />
<text x="60" y="301.7" text-anchor="end" font-size="11" font-family="monospace" fill="#2b2926">6</text>
<line x1="72" y1="294.8" x2="736" y2="294.8" stroke="#cabfae" stroke-dasharray="3 4" />
<text x="60" y="298.8" text-anchor="end" font-size="11" font-family="monospace" fill="#2b2926">7</text>
<line x1="72" y1="291.9" x2="736" y2="291.9" stroke="#cabfae" stroke-dasharray="3 4" />
<text x="60" y="295.9" text-anchor="end" font-size="11" font-family="monospace" fill="#2b2926">8</text>
<line x1="72" y1="289.1" x2="736" y2="289.1" stroke="#cabfae" stroke-dasharray="3 4" />
<text x="60" y="293.1" text-anchor="end" font-size="11" font-family="monospace" fill="#2b2926">9</text>
<line x1="72" y1="286.2" x2="736" y2="286.2" stroke="#cabfae" stroke-dasharray="3 4" />
<text x="60" y="290.2" text-anchor="end" font-size="11" font-family="monospace" fill="#2b2926">10</text>
<line x1="72" y1="283.3" x2="736" y2="283.3" stroke="#cabfae" stroke-dasharray="3 4" />
<text x="60" y="287.3" text-anchor="end" font-size="11" font-family="monospace" fill="#2b2926">11</text>
<line x1="72" y1="280.4" x2="736" y2="280.4" stroke="#cabfae" stroke-dasharray="3 4" />
<text x="60" y="284.4" text-anchor="end" font-size="11" font-family="monospace" fill="#2b2926">12</text>
<line x1="72" y1="277.6" x2="736" y2="277.6" stroke="#cabfae" stroke-dasharray="3 4" />
<text x="60" y="281.6" text-anchor="end" font-size="11" font-family="monospace" fill="#2b2926">13</text>
<line x1="72" y1="274.7" x2="736" y2="274.7" stroke="#cabfae" stroke-dasharray="3 4" />
<text x="60" y="278.7" text-anchor="end" font-size="11" font-family="monospace" fill="#2b2926">14</text>
<line x1="72" y1="271.8" x2="736" y2="271.8" stroke="#cabfae" stroke-dasharray="3 4" />
<text x="60" y="275.8" text-anchor="end" font-size="11" font-family="monospace" fill="#2b2926">15</text>
<line x1="72" y1="269.0" x2="736" y2="269.0" stroke="#cabfae" stroke-dasharray="3 4" />
<text x="60" y="273.0" text-anchor="end" font-size="11" font-family="monospace" fill="#2b2926">16</text>
<line x1="72" y1="266.1" x2="736" y2="266.1" stroke="#cabfae" stroke-dasharray="3 4" />
<text x="60" y="270.1" text-anchor="end" font-size="11" font-family="monospace" fill="#2b2926">17</text>
<line x1="72" y1="263.2" x2="736" y2="263.2" stroke="#cabfae" stroke-dasharray="3 4" />
<text x="60" y="267.2" text-anchor="end" font-size="11" font-family="monospace" fill="#2b2926">18</text>
<line x1="72" y1="260.4" x2="736" y2="260.4" stroke="#cabfae" stroke-dasharray="3 4" />
<text x="60" y="264.4" text-anchor="end" font-size="11" font-family="monospace" fill="#2b2926">19</text>
<line x1="72" y1="257.5" x2="736" y2="257.5" stroke="#cabfae" stroke-dasharray="3 4" />
<text x="60" y="261.5" text-anchor="end" font-size="11" font-family="monospace" fill="#2b2926">20</text>
<line x1="72" y1="254.6" x2="736" y2="254.6" stroke="#cabfae" stroke-dasharray="3 4" />
<text x="60" y="258.6" text-anchor="end" font-size="11" font-family="monospace" fill="#2b2926">21</text>
<line x1="72" y1="251.8" x2="736" y2="251.8" stroke="#cabfae" stroke-dasharray="3 4" />
<text x="60" y="255.8" text-anchor="end" font-size="11" font-family="monospace" fill="#2b2926">22</text>
<line x1="72" y1="248.9" x2="736" y2="248.9" stroke="#cabfae" stroke-dasharray="3 4" />
<text x="60" y="252.9" text-anchor="end" font-size="11" font-family="monospace" fill="#2b2926">23</text>
<line x1="72" y1="246.0" x2="736" y2="246.0" stroke="#cabfae" stroke-dasharray="3 4" />
<text x="60" y="250.0" text-anchor="end" font-size="11" font-family="monospace" fill="#2b2926">24</text>
<line x1="72" y1="243.2" x2="736" y2="243.2" stroke="#cabfae" stroke-dasharray="3 4" />
<text x="60" y="247.2" text-anchor="end" font-size="11" font-family="monospace" fill="#2b2926">25</text>
<line x1="72" y1="240.3" x2="736" y2="240.3" stroke="#cabfae" stroke-dasharray="3 4" />
<text x="60" y="244.3" text-anchor="end" font-size="11" font-family="monospace" fill="#2b2926">26</text>
<line x1="72" y1="237.4" x2="736" y2="237.4" stroke="#cabfae" stroke-dasharray="3 4" />
<text x="60" y="241.4" text-anchor="end" font-size="11" font-family="monospace" fill="#2b2926">27</text>
<line x1="72" y1="234.5" x2="736" y2="234.5" stroke="#cabfae" stroke-dasharray="3 4" />
<text x="60" y="238.5" text-anchor="end" font-size="11" font-family="monospace" fill="#2b2926">28</text>
<line x1="72" y1="231.7" x2="736" y2="231.7" stroke="#cabfae" stroke-dasharray="3 4" />
<text x="60" y="235.7" text-anchor="end" font-size="11" font-family="monospace" fill="#2b2926">29</text>
<line x1="72" y1="228.8" x2="736" y2="228.8" stroke="#cabfae" stroke-dasharray="3 4" />
<text x="60" y="232.8" text-anchor="end" font-size="11" font-family="monospace" fill="#2b2926">30</text>
<line x1="72" y1="225.9" x2="736" y2="225.9" stroke="#cabfae" stroke-dasharray="3 4" />
<text x="60" y="229.9" text-anchor="end" font-size="11" font-family="monospace" fill="#2b2926">31</text>
<line x1="72" y1="223.1" x2="736" y2="223.1" stroke="#cabfae" stroke-dasharray="3 4" />
<text x="60" y="227.1" text-anchor="end" font-size="11" font-family="monospace" fill="#2b2926">32</text>
<line x1="72" y1="220.2" x2="736" y2="220.2" stroke="#cabfae" stroke-dasharray="3 4" />
<text x="60" y="224.2" text-anchor="end" font-size="11" font-family="monospace" fill="#2b2926">33</text>
<line x1="72" y1="217.3" x2="736" y2="217.3" stroke="#cabfae" stroke-dasharray="3 4" />
<text x="60" y="221.3" text-anchor="end" font-size="11" font-family="monospace" fill="#2b2926">34</text>
<line x1="72" y1="214.5" x2="736" y2="214.5" stroke="#cabfae" stroke-dasharray="3 4" />
<text x="60" y="218.5" text-anchor="end" font-size="11" font-family="monospace" fill="#2b2926">35</text>
<line x1="72" y1="211.6" x2="736" y2="211.6" stroke="#cabfae" stroke-dasharray="3 4" />
<text x="60" y="215.6" text-anchor="end" font-size="11" font-family="monospace" fill="#2b2926">36</text>
<line x1="72" y1="208.7" x2="736" y2="208.7" stroke="#cabfae" stroke-dasharray="3 4" />
<text x="60" y="212.7" text-anchor="end" font-size="11" font-family="monospace" fill="#2b2926">37</text>
<line x1="72" y1="205.9" x2="736" y2="205.9" stroke="#cabfae" stroke-dasharray="3 4" />
<text x="60" y="209.9" text-anchor="end" font-size="11" font-family="monospace" fill="#2b2926">38</text>
<line x1="72" y1="203.0" x2="736" y2="203.0" stroke="#cabfae" stroke-dasharray="3 4" />
<text x="60" y="207.0" text-anchor="end" font-size="11" font-family="monospace" fill="#2b2926">39</text>
<line x1="72" y1="200.1" x2="736" y2="200.1" stroke="#cabfae" stroke-dasharray="3 4" />
<text x="60" y="204.1" text-anchor="end" font-size="11" font-family="monospace" fill="#2b2926">40</text>
<line x1="72" y1="197.3" x2="736" y2="197.3" stroke="#cabfae" stroke-dasharray="3 4" />
<text x="60" y="201.3" text-anchor="end" font-size="11" font-family="monospace" fill="#2b2926">41</text>
<line x1="72" y1="194.4" x2="736" y2="194.4" stroke="#cabfae" stroke-dasharray="3 4" />
<text x="60" y="198.4" text-anchor="end" font-size="11" font-family="monospace" fill="#2b2926">42</text>
<line x1="72" y1="191.5" x2="736" y2="191.5" stroke="#cabfae" stroke-dasharray="3 4" />
<text x="60" y="195.5" text-anchor="end" font-size="11" font-family="monospace" fill="#2b2926">43</text>
<line x1="72" y1="188.6" x2="736" y2="188.6" stroke="#cabfae" stroke-dasharray="3 4" />
<text x="60" y="192.6" text-anchor="end" font-size="11" font-family="monospace" fill="#2b2926">44</text>
<line x1="72" y1="185.8" x2="736" y2="185.8" stroke="#cabfae" stroke-dasharray="3 4" />
<text x="60" y="189.8" text-anchor="end" font-size="11" font-family="monospace" fill="#2b2926">45</text>
<line x1="72" y1="182.9" x2="736" y2="182.9" stroke="#cabfae" stroke-dasharray="3 4" />
<text x="60" y="186.9" text-anchor="end" font-size="11" font-family="monospace" fill="#2b2926">46</text>
<line x1="72" y1="180.0" x2="736" y2="180.0" stroke="#cabfae" stroke-dasharray="3 4" />
<text x="60" y="184.0" text-anchor="end" font-size="11" font-family="monospace" fill="#2b2926">47</text>
<line x1="72" y1="177.2" x2="736" y2="177.2" stroke="#cabfae" stroke-dasharray="3 4" />
<text x="60" y="181.2" text-anchor="end" font-size="11" font-family="monospace" fill="#2b2926">48</text>
<line x1="72" y1="174.3" x2="736" y2="174.3" stroke="#cabfae" stroke-dasharray="3 4" />
<text x="60" y="178.3" text-anchor="end" font-size="11" font-family="monospace" fill="#2b2926">49</text>
<line x1="72" y1="171.4" x2="736" y2="171.4" stroke="#cabfae" stroke-dasharray="3 4" />
<text x="60" y="175.4" text-anchor="end" font-size="11" font-family="monospace" fill="#2b2926">50</text>
<line x1="72" y1="168.6" x2="736" y2="168.6" stroke="#cabfae" stroke-dasharray="3 4" />
<text x="60" y="172.6" text-anchor="end" font-size="11" font-family="monospace" fill="#2b2926">51</text>
<line x1="72" y1="165.7" x2="736" y2="165.7" stroke="#cabfae" stroke-dasharray="3 4" />
<text x="60" y="169.7" text-anchor="end" font-size="11" font-family="monospace" fill="#2b2926">52</text>
<line x1="72" y1="162.8" x2="736" y2="162.8" stroke="#cabfae" stroke-dasharray="3 4" />
<text x="60" y="166.8" text-anchor="end" font-size="11" font-family="monospace" fill="#2b2926">53</text>
<line x1="72" y1="160.0" x2="736" y2="160.0" stroke="#cabfae" stroke-dasharray="3 4" />
<text x="60" y="164.0" text-anchor="end" font-size="11" font-family="monospace" fill="#2b2926">54</text>
<line x1="72" y1="157.1" x2="736" y2="157.1" stroke="#cabfae" stroke-dasharray="3 4" />
<text x="60" y="161.1" text-anchor="end" font-size="11" font-family="monospace" fill="#2b2926">55</text>
<line x1="72" y1="154.2" x2="736" y2="154.2" stroke="#cabfae" stroke-dasharray="3 4" />
<text x="60" y="158.2" text-anchor="end" font-size="11" font-family="monospace" fill="#2b2926">56</text>
<line x1="72" y1="151.4" x2="736" y2="151.4" stroke="#cabfae" stroke-dasharray="3 4" />
<text x="60" y="155.4" text-anchor="end" font-size="11" font-family="monospace" fill="#2b2926">57</text>
<line x1="72" y1="148.5" x2="736" y2="148.5" stroke="#cabfae" stroke-dasharray="3 4" />
<text x="60" y="152.5" text-anchor="end" font-size="11" font-family="monospace" fill="#2b2926">58</text>
<line x1="72" y1="145.6" x2="736" y2="145.6" stroke="#cabfae" stroke-dasharray="3 4" />
<text x="60" y="149.6" text-anchor="end" font-size="11" font-family="monospace" fill="#2b2926">59</text>
<line x1="72" y1="142.7" x2="736" y2="142.7" stroke="#cabfae" stroke-dasharray="3 4" />
<text x="60" y="146.7" text-anchor="end" font-size="11" font-family="monospace" fill="#2b2926">60</text>
<line x1="72" y1="139.9" x2="736" y2="139.9" stroke="#cabfae" stroke-dasharray="3 4" />
<text x="60" y="143.9" text-anchor="end" font-size="11" font-family="monospace" fill="#2b2926">61</text>
<line x1="72" y1="137.0" x2="736" y2="137.0" stroke="#cabfae" stroke-dasharray="3 4" />
<text x="60" y="141.0" text-anchor="end" font-size="11" font-family="monospace" fill="#2b2926">62</text>
<line x1="72" y1="134.1" x2="736" y2="134.1" stroke="#cabfae" stroke-dasharray="3 4" />
<text x="60" y="138.1" text-anchor="end" font-size="11" font-family="monospace" fill="#2b2926">63</text>
<line x1="72" y1="131.3" x2="736" y2="131.3" stroke="#cabfae" stroke-dasharray="3 4" />
<text x="60" y="135.3" text-anchor="end" font-size="11" font-family="monospace" fill="#2b2926">64</text>
<line x1="72" y1="128.4" x2="736" y2="128.4" stroke="#cabfae" stroke-dasharray="3 4" />
<text x="60" y="132.4" text-anchor="end" font-size="11" font-family="monospace" fill="#2b2926">65</text>
<line x1="72" y1="125.5" x2="736" y2="125.5" stroke="#cabfae" stroke-dasharray="3 4" />
<text x="60" y="129.5" text-anchor="end" font-size="11" font-family="monospace" fill="#2b2926">66</text>
<line x1="72" y1="122.7" x2="736" y2="122.7" stroke="#cabfae" stroke-dasharray="3 4" />
<text x="60" y="126.7" text-anchor="end" font-size="11" font-family="monospace" fill="#2b2926">67</text>
<line x1="72" y1="119.8" x2="736" y2="119.8" stroke="#cabfae" stroke-dasharray="3 4" />
<text x="60" y="123.8" text-anchor="end" font-size="11" font-family="monospace" fill="#2b2926">68</text>
<line x1="72" y1="116.9" x2="736" y2="116.9" stroke="#cabfae" stroke-dasharray="3 4" />
<text x="60" y="120.9" text-anchor="end" font-size="11" font-family="monospace" fill="#2b2926">69</text>
<line x1="72" y1="114.1" x2="736" y2="114.1" stroke="#cabfae" stroke-dasharray="3 4" />
<text x="60" y="118.1" text-anchor="end" font-size="11" font-family="monospace" fill="#2b2926">70</text>
<line x1="72" y1="111.2" x2="736" y2="111.2" stroke="#cabfae" stroke-dasharray="3 4" />
<text x="60" y="115.2" text-anchor="end" font-size="11" font-family="monospace" fill="#2b2926">71</text>
<line x1="72" y1="108.3" x2="736" y2="108.3" stroke="#cabfae" stroke-dasharray="3 4" />
<text x="60" y="112.3" text-anchor="end" font-size="11" font-family="monospace" fill="#2b2926">72</text>
<line x1="72" y1="105.5" x2="736" y2="105.5" stroke="#cabfae" stroke-dasharray="3 4" />
<text x="60" y="109.5" text-anchor="end" font-size="11" font-family="monospace" fill="#2b2926">73</text>
<line x1="72" y1="102.6" x2="736" y2="102.6" stroke="#cabfae" stroke-dasharray="3 4" />
<text x="60" y="106.6" text-anchor="end" font-size="11" font-family="monospace" fill="#2b2926">74</text>
<line x1="72" y1="99.7" x2="736" y2="99.7" stroke="#cabfae" stroke-dasharray="3 4" />
<text x="60" y="103.7" text-anchor="end" font-size="11" font-family="monospace" fill="#2b2926">75</text>
<line x1="72" y1="96.8" x2="736" y2="96.8" stroke="#cabfae" stroke-dasharray="3 4" />
<text x="60" y="100.8" text-anchor="end" font-size="11" font-family="monospace" fill="#2b2926">76</text>
<line x1="72" y1="94.0" x2="736" y2="94.0" stroke="#cabfae" stroke-dasharray="3 4" />
<text x="60" y="98.0" text-anchor="end" font-size="11" font-family="monospace" fill="#2b2926">77</text>
<line x1="72" y1="91.1" x2="736" y2="91.1" stroke="#cabfae" stroke-dasharray="3 4" />
<text x="60" y="95.1" text-anchor="end" font-size="11" font-family="monospace" fill="#2b2926">78</text>
<line x1="72" y1="88.2" x2="736" y2="88.2" stroke="#cabfae" stroke-dasharray="3 4" />
<text x="60" y="92.2" text-anchor="end" font-size="11" font-family="monospace" fill="#2b2926">79</text>
<line x1="72" y1="85.4" x2="736" y2="85.4" stroke="#cabfae" stroke-dasharray="3 4" />
<text x="60" y="89.4" text-anchor="end" font-size="11" font-family="monospace" fill="#2b2926">80</text>
<line x1="72" y1="82.5" x2="736" y2="82.5" stroke="#cabfae" stroke-dasharray="3 4" />
<text x="60" y="86.5" text-anchor="end" font-size="11" font-family="monospace" fill="#2b2926">81</text>
<line x1="72" y1="79.6" x2="736" y2="79.6" stroke="#cabfae" stroke-dasharray="3 4" />
<text x="60" y="83.6" text-anchor="end" font-size="11" font-family="monospace" fill="#2b2926">82</text>
<line x1="72" y1="76.8" x2="736" y2="76.8" stroke="#cabfae" stroke-dasharray="3 4" />
<text x="60" y="80.8" text-anchor="end" font-size="11" font-family="monospace" fill="#2b2926">83</text>
<line x1="72" y1="73.9" x2="736" y2="73.9" stroke="#cabfae" stroke-dasharray="3 4" />
<text x="60" y="77.9" text-anchor="end" font-size="11" font-family="monospace" fill="#2b2926">84</text>
<line x1="72" y1="71.0" x2="736" y2="71.0" stroke="#cabfae" stroke-dasharray="3 4" />
<text x="60" y="75.0" text-anchor="end" font-size="11" font-family="monospace" fill="#2b2926">85</text>
<line x1="72" y1="68.2" x2="736" y2="68.2" stroke="#cabfae" stroke-dasharray="3 4" />
<text x="60" y="72.2" text-anchor="end" font-size="11" font-family="monospace" fill="#2b2926">86</text>
<line x1="72" y1="65.3" x2="736" y2="65.3" stroke="#cabfae" stroke-dasharray="3 4" />
<text x="60" y="69.3" text-anchor="end" font-size="11" font-family="monospace" fill="#2b2926">87</text>
<line x1="72" y1="62.4" x2="736" y2="62.4" stroke="#cabfae" stroke-dasharray="3 4" />
<text x="60" y="66.4" text-anchor="end" font-size="11" font-family="monospace" fill="#2b2926">88</text>
<line x1="72" y1="59.6" x2="736" y2="59.6" stroke="#cabfae" stroke-dasharray="3 4" />
<text x="60" y="63.6" text-anchor="end" font-size="11" font-family="monospace" fill="#2b2926">89</text>
<line x1="72" y1="56.7" x2="736" y2="56.7" stroke="#cabfae" stroke-dasharray="3 4" />
<text x="60" y="60.7" text-anchor="end" font-size="11" font-family="monospace" fill="#2b2926">90</text>
<line x1="72" y1="53.8" x2="736" y2="53.8" stroke="#cabfae" stroke-dasharray="3 4" />
<text x="60" y="57.8" text-anchor="end" font-size="11" font-family="monospace" fill="#2b2926">91</text>
<line x1="72" y1="50.9" x2="736" y2="50.9" stroke="#cabfae" stroke-dasharray="3 4" />
<text x="60" y="54.9" text-anchor="end" font-size="11" font-family="monospace" fill="#2b2926">92</text>
<line x1="72" y1="48.1" x2="736" y2="48.1" stroke="#cabfae" stroke-dasharray="3 4" />
<text x="60" y="52.1" text-anchor="end" font-size="11" font-family="monospace" fill="#2b2926">93</text>
<line x1="72" y1="45.2" x2="736" y2="45.2" stroke="#cabfae" stroke-dasharray="3 4" />
<text x="60" y="49.2" text-anchor="end" font-size="11" font-family="monospace" fill="#2b2926">94</text>
<line x1="72" y1="42.3" x2="736" y2="42.3" stroke="#cabfae" stroke-dasharray="3 4" />
<text x="60" y="46.3" text-anchor="end" font-size="11" font-family="monospace" fill="#2b2926">95</text>
<line x1="72" y1="39.5" x2="736" y2="39.5" stroke="#cabfae" stroke-dasharray="3 4" />
<text x="60" y="43.5" text-anchor="end" font-size="11" font-family="monospace" fill="#2b2926">96</text>
<line x1="72" y1="36.6" x2="736" y2="36.6" stroke="#cabfae" stroke-dasharray="3 4" />
<text x="60" y="40.6" text-anchor="end" font-size="11" font-family="monospace" fill="#2b2926">97</text>
<line x1="72" y1="33.7" x2="736" y2="33.7" stroke="#cabfae" stroke-dasharray="3 4" />
<text x="60" y="37.7" text-anchor="end" font-size="11" font-family="monospace" fill="#2b2926">98</text>
<line x1="72" y1="30.9" x2="736" y2="30.9" stroke="#cabfae" stroke-dasharray="3 4" />
<text x="60" y="34.9" text-anchor="end" font-size="11" font-family="monospace" fill="#2b2926">99</text>
<line x1="72" y1="28.0" x2="736" y2="28.0" stroke="#cabfae" stroke-dasharray="3 4" />
<text x="60" y="32.0" text-anchor="end" font-size="11" font-family="monospace" fill="#2b2926">100</text>
<text x="404.0" y="356" text-anchor="middle" font-size="12" font-family="monospace" fill="#2b2926">level</text>
<text x="20" y="170.0" transform="rotate(-90 20 170.0)" text-anchor="middle" font-size="12" font-family="monospace" fill="#2b2926">max success dimension</text>
<polyline fill="none" stroke="#1f5f7a" stroke-width="3" points="736.0,243.2" />
<circle cx="736.0" cy="243.2" r="4" fill="#1f5f7a" />
<line x1="600" y1="26" x2="620" y2="26" stroke="#1f5f7a" stroke-width="3" />
<text x="628" y="30" font-size="11" font-family="monospace" fill="#2b2926">float16</text>
<polyline fill="none" stroke="#c9573b" stroke-width="3" points="736.0,243.2" />
<circle cx="736.0" cy="243.2" r="4" fill="#c9573b" />
<line x1="600" y1="44" x2="620" y2="44" stroke="#c9573b" stroke-width="3" />
<text x="628" y="48" font-size="11" font-family="monospace" fill="#2b2926">bfloat16</text>
<polyline fill="none" stroke="#7d6b2f" stroke-width="3" points="736.0,237.4" />
<circle cx="736.0" cy="237.4" r="4" fill="#7d6b2f" />
<line x1="600" y1="62" x2="620" y2="62" stroke="#7d6b2f" stroke-width="3" />
<text x="628" y="66" font-size="11" font-family="monospace" fill="#2b2926">float32</text>
<polyline fill="none" stroke="#6d4ea1" stroke-width="3" points="736.0,246.0" />
<circle cx="736.0" cy="246.0" r="4" fill="#6d4ea1" />
<line x1="600" y1="80" x2="620" y2="80" stroke="#6d4ea1" stroke-width="3" />
<text x="628" y="84" font-size="11" font-family="monospace" fill="#2b2926">float64</text>
</svg>