<svg xmlns="http://www.w3.org/2000/svg" width="204" height="304" viewBox="0 0 204 304">
<rect width="204" height="304" fill="#f7f2e8" />
<text x="18" y="24" font-size="18" font-family="monospace" fill="#2b2926">execution status</text>
<rect x="18" y="32" width="14" height="14" fill="#2f7d4a" stroke="#cabfae" rx="3" />
<text x="38" y="43" font-size="11" font-family="monospace" fill="#2b2926">ok</text>
<rect x="108" y="32" width="14" height="14" fill="#c9573b" stroke="#cabfae" rx="3" />
<text x="128" y="43" font-size="11" font-family="monospace" fill="#2b2926">failed</text>
<rect x="198" y="32" width="14" height="14" fill="#d79b2e" stroke="#cabfae" rx="3" />
<text x="218" y="43" font-size="11" font-family="monospace" fill="#2b2926">timeout</text>
<rect x="288" y="32" width="14" height="14" fill="#d9d5cc" stroke="#cabfae" rx="3" />
<text x="308" y="43" font-size="11" font-family="monospace" fill="#2b2926">missing</text>
<rect x="10" y="52" width="184" height="104" rx="14" fill="#fffdfa" stroke="#cabfae" />
<text x="22" y="72" font-size="14" font-family="monospace" fill="#2b2926">dtype=float32</text>
<text x="134.0" y="90" text-anchor="middle" font-size="11" font-family="monospace" fill="#2b2926">d=4</text>
<text x="74" y="126" text-anchor="end" font-size="11" font-family="monospace" fill="#2b2926">l=3</text>
<rect x="88" y="104" width="88" height="30" fill="#c9573b" stroke="#cabfae" rx="6" />
<text x="132.0" y="124" text-anchor="middle" font-size="9" font-family="monospace" fill="#2b2926">failed</text>
<rect x="10" y="190" width="184" height="104" rx="14" fill="#fffdfa" stroke="#cabfae" />
<text x="22" y="210" font-size="14" font-family="monospace" fill="#2b2926">dtype=float64</text>
<text x="134.0" y="228" text-anchor="middle" font-size="11" font-family="monospace" fill="#2b2926">d=4</text>
<text x="74" y="264" text-anchor="end" font-size="11" font-family="monospace" fill="#2b2926">l=3</text>
<rect x="88" y="242" width="88" height="30" fill="#c9573b" stroke="#cabfae" rx="6" />
<text x="132.0" y="262" text-anchor="middle" font-size="9" font-family="monospace" fill="#2b2926">failed</text>
</svg>