<svg xmlns="http://www.w3.org/2000/svg" width="296" height="686" viewBox="0 0 296 686">
<rect width="296" height="686" fill="#f7f2e8" />
<text x="18" y="24" font-size="18" font-family="monospace" fill="#2b2926">mean absolute error</text>
<text x="278" y="24" text-anchor="end" font-size="12" font-family="monospace" fill="#1f5f7a">log10=-1.90 -> log10=-1.90</text>
<rect x="10" y="34" width="276" height="138" rx="14" fill="#fffdfa" stroke="#cabfae" />
<text x="22" y="54" font-size="14" font-family="monospace" fill="#2b2926">dtype=float16</text>
<text x="134.0" y="72" text-anchor="middle" font-size="11" font-family="monospace" fill="#2b2926">d=0</text>
<text x="226.0" y="72" text-anchor="middle" font-size="11" font-family="monospace" fill="#2b2926">d=1</text>
<text x="74" y="108" text-anchor="end" font-size="11" font-family="monospace" fill="#2b2926">l=0</text>
<rect x="88" y="86" width="88" height="30" fill="#c9573b" stroke="#cabfae" rx="6" />
<text x="132.0" y="106" text-anchor="middle" font-size="9" font-family="monospace" fill="#2b2926">-</text>
<rect x="180" y="86" width="88" height="30" fill="#c9573b" stroke="#cabfae" rx="6" />
<text x="224.0" y="106" text-anchor="middle" font-size="9" font-family="monospace" fill="#2b2926">-</text>
<text x="74" y="142" text-anchor="end" font-size="11" font-family="monospace" fill="#2b2926">l=1</text>
<rect x="88" y="120" width="88" height="30" fill="#c9573b" stroke="#cabfae" rx="6" />
<text x="132.0" y="140" text-anchor="middle" font-size="9" font-family="monospace" fill="#2b2926">-</text>
<rect x="180" y="120" width="88" height="30" fill="#d4a49b" stroke="#cabfae" rx="6" />
<text x="224.0" y="140" text-anchor="middle" font-size="9" font-family="monospace" fill="#2b2926">0.013</text>
<rect x="10" y="206" width="276" height="138" rx="14" fill="#fffdfa" stroke="#cabfae" />
<text x="22" y="226" font-size="14" font-family="monospace" fill="#2b2926">dtype=bfloat16</text>
<text x="134.0" y="244" text-anchor="middle" font-size="11" font-family="monospace" fill="#2b2926">d=0</text>
<text x="226.0" y="244" text-anchor="middle" font-size="11" font-family="monospace" fill="#2b2926">d=1</text>
<text x="74" y="280" text-anchor="end" font-size="11" font-family="monospace" fill="#2b2926">l=0</text>
<rect x="88" y="258" width="88" height="30" fill="#c9573b" stroke="#cabfae" rx="6" />
<text x="132.0" y="278" text-anchor="middle" font-size="9" font-family="monospace" fill="#2b2926">-</text>
<rect x="180" y="258" width="88" height="30" fill="#c9573b" stroke="#cabfae" rx="6" />
<text x="224.0" y="278" text-anchor="middle" font-size="9" font-family="monospace" fill="#2b2926">-</text>
<text x="74" y="314" text-anchor="end" font-size="11" font-family="monospace" fill="#2b2926">l=1</text>
<rect x="88" y="292" width="88" height="30" fill="#c9573b" stroke="#cabfae" rx="6" />
<text x="132.0" y="312" text-anchor="middle" font-size="9" font-family="monospace" fill="#2b2926">-</text>
<rect x="180" y="292" width="88" height="30" fill="#d4a49b" stroke="#cabfae" rx="6" />
<text x="224.0" y="312" text-anchor="middle" font-size="9" font-family="monospace" fill="#2b2926">0.013</text>
<rect x="10" y="378" width="276" height="138" rx="14" fill="#fffdfa" stroke="#cabfae" />
<text x="22" y="398" font-size="14" font-family="monospace" fill="#2b2926">dtype=float32</text>
<text x="134.0" y="416" text-anchor="middle" font-size="11" font-family="monospace" fill="#2b2926">d=0</text>
<text x="226.0" y="416" text-anchor="middle" font-size="11" font-family="monospace" fill="#2b2926">d=1</text>
<text x="74" y="452" text-anchor="end" font-size="11" font-family="monospace" fill="#2b2926">l=0</text>
<rect x="88" y="430" width="88" height="30" fill="#c9573b" stroke="#cabfae" rx="6" />
<text x="132.0" y="450" text-anchor="middle" font-size="9" font-family="monospace" fill="#2b2926">-</text>
<rect x="180" y="430" width="88" height="30" fill="#c9573b" stroke="#cabfae" rx="6" />
<text x="224.0" y="450" text-anchor="middle" font-size="9" font-family="monospace" fill="#2b2926">-</text>
<text x="74" y="486" text-anchor="end" font-size="11" font-family="monospace" fill="#2b2926">l=1</text>
<rect x="88" y="464" width="88" height="30" fill="#c9573b" stroke="#cabfae" rx="6" />
<text x="132.0" y="484" text-anchor="middle" font-size="9" font-family="monospace" fill="#2b2926">-</text>
<rect x="180" y="464" width="88" height="30" fill="#d4a49b" stroke="#cabfae" rx="6" />
<text x="224.0" y="484" text-anchor="middle" font-size="9" font-family="monospace" fill="#2b2926">0.013</text>
<rect x="10" y="550" width="276" height="138" rx="14" fill="#fffdfa" stroke="#cabfae" />
<text x="22" y="570" font-size="14" font-family="monospace" fill="#2b2926">dtype=float64</text>
<text x="134.0" y="588" text-anchor="middle" font-size="11" font-family="monospace" fill="#2b2926">d=0</text>
<text x="226.0" y="588" text-anchor="middle" font-size="11" font-family="monospace" fill="#2b2926">d=1</text>
<text x="74" y="624" text-anchor="end" font-size="11" font-family="monospace" fill="#2b2926">l=0</text>
<rect x="88" y="602" width="88" height="30" fill="#c9573b" stroke="#cabfae" rx="6" />
<text x="132.0" y="622" text-anchor="middle" font-size="9" font-family="monospace" fill="#2b2926">-</text>
<rect x="180" y="602" width="88" height="30" fill="#c9573b" stroke="#cabfae" rx="6" />
<text x="224.0" y="622" text-anchor="middle" font-size="9" font-family="monospace" fill="#2b2926">-</text>
<text x="74" y="658" text-anchor="end" font-size="11" font-family="monospace" fill="#2b2926">l=1</text>
<rect x="88" y="636" width="88" height="30" fill="#c9573b" stroke="#cabfae" rx="6" />
<text x="132.0" y="656" text-anchor="middle" font-size="9" font-family="monospace" fill="#2b2926">-</text>
<rect x="180" y="636" width="88" height="30" fill="#d4a49b" stroke="#cabfae" rx="6" />
<text x="224.0" y="656" text-anchor="middle" font-size="9" font-family="monospace" fill="#2b2926">0.013</text>
</svg>