<svg xmlns="http://www.w3.org/2000/svg" width="296" height="716" viewBox="0 0 296 716">
<rect width="296" height="716" fill="#f7f2e8" />
<text x="18" y="24" font-size="18" font-family="monospace" fill="#2b2926">execution status</text>
<rect x="18" y="32" width="14" height="14" fill="#2f7d4a" stroke="#cabfae" rx="3" />
<text x="38" y="43" font-size="11" font-family="monospace" fill="#2b2926">ok</text>
<rect x="108" y="32" width="14" height="14" fill="#c9573b" stroke="#cabfae" rx="3" />
<text x="128" y="43" font-size="11" font-family="monospace" fill="#2b2926">failed</text>
<rect x="198" y="32" width="14" height="14" fill="#d79b2e" stroke="#cabfae" rx="3" />
<text x="218" y="43" font-size="11" font-family="monospace" fill="#2b2926">timeout</text>
<rect x="288" y="32" width="14" height="14" fill="#d9d5cc" stroke="#cabfae" rx="3" />
<text x="308" y="43" font-size="11" font-family="monospace" fill="#2b2926">missing</text>
<rect x="10" y="52" width="276" height="138" rx="14" fill="#fffdfa" stroke="#cabfae" />
<text x="22" y="72" font-size="14" font-family="monospace" fill="#2b2926">dtype=float16</text>
<text x="134.0" y="90" text-anchor="middle" font-size="11" font-family="monospace" fill="#2b2926">d=0</text>
<text x="226.0" y="90" text-anchor="middle" font-size="11" font-family="monospace" fill="#2b2926">d=1</text>
<text x="74" y="126" text-anchor="end" font-size="11" font-family="monospace" fill="#2b2926">l=0</text>
<rect x="88" y="104" width="88" height="30" fill="#c9573b" stroke="#cabfae" rx="6" />
<text x="132.0" y="124" text-anchor="middle" font-size="9" font-family="monospace" fill="#2b2926">failed</text>
<rect x="180" y="104" width="88" height="30" fill="#c9573b" stroke="#cabfae" rx="6" />
<text x="224.0" y="124" text-anchor="middle" font-size="9" font-family="monospace" fill="#2b2926">failed</text>
<text x="74" y="160" text-anchor="end" font-size="11" font-family="monospace" fill="#2b2926">l=1</text>
<rect x="88" y="138" width="88" height="30" fill="#c9573b" stroke="#cabfae" rx="6" />
<text x="132.0" y="158" text-anchor="middle" font-size="9" font-family="monospace" fill="#2b2926">failed</text>
<rect x="180" y="138" width="88" height="30" fill="#2f7d4a" stroke="#cabfae" rx="6" />
<text x="224.0" y="158" text-anchor="middle" font-size="9" font-family="monospace" fill="#2b2926">ok</text>
<rect x="10" y="224" width="276" height="138" rx="14" fill="#fffdfa" stroke="#cabfae" />
<text x="22" y="244" font-size="14" font-family="monospace" fill="#2b2926">dtype=bfloat16</text>
<text x="134.0" y="262" text-anchor="middle" font-size="11" font-family="monospace" fill="#2b2926">d=0</text>
<text x="226.0" y="262" text-anchor="middle" font-size="11" font-family="monospace" fill="#2b2926">d=1</text>
<text x="74" y="298" text-anchor="end" font-size="11" font-family="monospace" fill="#2b2926">l=0</text>
<rect x="88" y="276" width="88" height="30" fill="#c9573b" stroke="#cabfae" rx="6" />
<text x="132.0" y="296" text-anchor="middle" font-size="9" font-family="monospace" fill="#2b2926">failed</text>
<rect x="180" y="276" width="88" height="30" fill="#c9573b" stroke="#cabfae" rx="6" />
<text x="224.0" y="296" text-anchor="middle" font-size="9" font-family="monospace" fill="#2b2926">failed</text>
<text x="74" y="332" text-anchor="end" font-size="11" font-family="monospace" fill="#2b2926">l=1</text>
<rect x="88" y="310" width="88" height="30" fill="#c9573b" stroke="#cabfae" rx="6" />
<text x="132.0" y="330" text-anchor="middle" font-size="9" font-family="monospace" fill="#2b2926">failed</text>
<rect x="180" y="310" width="88" height="30" fill="#2f7d4a" stroke="#cabfae" rx="6" />
<text x="224.0" y="330" text-anchor="middle" font-size="9" font-family="monospace" fill="#2b2926">ok</text>
<rect x="10" y="396" width="276" height="138" rx="14" fill="#fffdfa" stroke="#cabfae" />
<text x="22" y="416" font-size="14" font-family="monospace" fill="#2b2926">dtype=float32</text>
<text x="134.0" y="434" text-anchor="middle" font-size="11" font-family="monospace" fill="#2b2926">d=0</text>
<text x="226.0" y="434" text-anchor="middle" font-size="11" font-family="monospace" fill="#2b2926">d=1</text>
<text x="74" y="470" text-anchor="end" font-size="11" font-family="monospace" fill="#2b2926">l=0</text>
<rect x="88" y="448" width="88" height="30" fill="#c9573b" stroke="#cabfae" rx="6" />
<text x="132.0" y="468" text-anchor="middle" font-size="9" font-family="monospace" fill="#2b2926">failed</text>
<rect x="180" y="448" width="88" height="30" fill="#c9573b" stroke="#cabfae" rx="6" />
<text x="224.0" y="468" text-anchor="middle" font-size="9" font-family="monospace" fill="#2b2926">failed</text>
<text x="74" y="504" text-anchor="end" font-size="11" font-family="monospace" fill="#2b2926">l=1</text>
<rect x="88" y="482" width="88" height="30" fill="#c9573b" stroke="#cabfae" rx="6" />
<text x="132.0" y="502" text-anchor="middle" font-size="9" font-family="monospace" fill="#2b2926">failed</text>
<rect x="180" y="482" width="88" height="30" fill="#2f7d4a" stroke="#cabfae" rx="6" />
<text x="224.0" y="502" text-anchor="middle" font-size="9" font-family="monospace" fill="#2b2926">ok</text>
<rect x="10" y="568" width="276" height="138" rx="14" fill="#fffdfa" stroke="#cabfae" />
<text x="22" y="588" font-size="14" font-family="monospace" fill="#2b2926">dtype=float64</text>
<text x="134.0" y="606" text-anchor="middle" font-size="11" font-family="monospace" fill="#2b2926">d=0</text>
<text x="226.0" y="606" text-anchor="middle" font-size="11" font-family="monospace" fill="#2b2926">d=1</text>
<text x="74" y="642" text-anchor="end" font-size="11" font-family="monospace" fill="#2b2926">l=0</text>
<rect x="88" y="620" width="88" height="30" fill="#c9573b" stroke="#cabfae" rx="6" />
<text x="132.0" y="640" text-anchor="middle" font-size="9" font-family="monospace" fill="#2b2926">failed</text>
<rect x="180" y="620" width="88" height="30" fill="#c9573b" stroke="#cabfae" rx="6" />
<text x="224.0" y="640" text-anchor="middle" font-size="9" font-family="monospace" fill="#2b2926">failed</text>
<text x="74" y="676" text-anchor="end" font-size="11" font-family="monospace" fill="#2b2926">l=1</text>
<rect x="88" y="654" width="88" height="30" fill="#c9573b" stroke="#cabfae" rx="6" />
<text x="132.0" y="674" text-anchor="middle" font-size="9" font-family="monospace" fill="#2b2926">failed</text>
<rect x="180" y="654" width="88" height="30" fill="#2f7d4a" stroke="#cabfae" rx="6" />
<text x="224.0" y="674" text-anchor="middle" font-size="9" font-family="monospace" fill="#2b2926">ok</text>
</svg>